<svg width="1440" height="965" viewBox="0 0 1440 965" fill="none" xmlns="http://www.w3.org/2000/svg">
<path d="M-2.70311 0L-2.70306 964.106M128.743 0L128.743 964.106M260.189 0L260.189 361.854M260.189 964.106L260.189 482.304M391.636 0L391.636 361.854M391.636 964.106L391.636 482.304M523.082 0L523.082 964.106M654.528 0V0.50194M654.528 964.106L654.528 120.952M785.974 0V0.50194M785.974 964.106L785.974 120.952M917.42 0L917.42 964.106M1048.87 0V241.403M1048.87 964.106V361.854M1180.31 0V241.403M1180.31 964.106V361.854M1311.76 0V964.106M1443.21 0V964.106M1442.7 0.50194H785.974M-3.20504 0.50194H654.528M1442.7 120.952H785.974M-3.20504 120.952H654.528M1442.7 241.403H1180.31M-3.20505 241.403H1048.87M1442.7 361.854H1180.31M-3.20505 361.854H260.189M1442.7 482.304H391.636M-3.20506 482.304H260.189M1442.7 602.755H-3.20506M1442.7 723.205H-3.20507M1442.7 843.656H-3.20507M1442.7 964.106H-3.20508M1048.87 241.403H1180.31M1048.87 241.403V361.854M1180.31 241.403V361.854M1180.31 361.854H1048.87M1048.87 361.854H391.636M654.528 0.50194V120.952M654.528 0.50194H785.974M654.528 120.952H785.974M785.974 120.952V0.50194M260.189 361.854V482.304M260.189 361.854H391.636M260.189 482.304H391.636M391.636 482.304V361.854" stroke="#F5F5F5"/>
</svg>
