<svg width="1447" height="965" viewBox="0 0 1447 965" fill="none" xmlns="http://www.w3.org/2000/svg">
<path d="M0.501971 0L0.502016 964.106M131.948 0L131.948 964.106M263.394 0L263.394 361.854M263.394 964.106L263.394 482.304M394.841 0L394.841 361.854M394.841 964.106L394.841 482.304M526.287 0L526.287 964.106M657.733 0V0.50194M657.733 964.106L657.733 120.952M789.179 0V0.50194M789.179 964.106L789.179 120.952M920.625 0L920.625 964.106M1052.07 0V241.403M1052.07 964.106V361.854M1183.52 0V241.403M1183.52 964.106V361.854M1314.96 0V964.106M1446.41 0V964.106M1445.91 0.50194H789.179M4.21351e-05 0.50194H657.733M1445.91 120.952H789.179M3.68682e-05 120.952H657.733M1445.91 241.403H1183.52M3.16013e-05 241.403H1052.07M1445.91 361.854H1183.52M2.63344e-05 361.854H263.394M1445.91 482.304H394.841M2.10676e-05 482.304H263.394M1445.91 602.755H1.58007e-05M1445.91 723.205H1.05338e-05M1445.91 843.656H5.26689e-06M1445.91 964.106H0M1052.07 241.403H1183.52M1052.07 241.403V361.854M1183.52 241.403V361.854M1183.52 361.854H1052.07M1052.07 361.854H394.841M657.733 0.50194V120.952M657.733 0.50194H789.179M657.733 120.952H789.179M789.179 120.952V0.50194M263.394 361.854V482.304M263.394 361.854H394.841M263.394 482.304H394.841M394.841 482.304V361.854" stroke="#F5F5F5"/>
</svg>
