<svg width="36" height="36" viewBox="0 0 36 36" fill="none" xmlns="http://www.w3.org/2000/svg">
<rect width="36" height="36" rx="18" fill="#FF3838"/>
<path fill-rule="evenodd" clip-rule="evenodd" d="M16.8172 23.5717V28.9952C23.5946 29.1825 28 23.8145 28 17.9976C28 13.6576 25.6343 9.63872 21.4751 7.74164C21.4751 7.44456 21.4556 7.29888 21.1986 7.29888H20.5144C20.4141 7.30006 20.3764 7.3167 20.3522 7.38191C20.2533 7.35516 20.1616 7.32998 20.0746 7.3061C19.6198 7.18124 19.2943 7.09188 18.7527 7H8V16.5898H13.3066V12.4398H17.9902C17.9902 12.4398 22.8008 12.6731 22.8008 17.9976C22.8008 23.5717 17.9572 23.8226 16.8172 23.5717ZM20.8673 8.62175L21.4143 13.2772C20.4055 12.3958 19.2274 11.9502 17.8826 11.8622L16.1156 9.96965V9.73212L20.1839 8.25865C20.1839 8.46729 20.3858 8.62175 20.4865 8.62175H20.8673ZM17.1185 11.8622L15.6963 10.3496H14.9462C14.8022 10.3496 14.6524 10.2139 14.6337 10.0521L12.1187 11.0584V11.3586L13.1009 11.8673L17.1185 11.8622ZM12.9526 7.58906H8.72609L10.4645 10.161H11.7012C11.9293 10.161 12.1126 10.3089 12.1126 10.4437L14.5688 9.47042L12.9526 7.58906ZM13.6956 7.58769L18.7527 7.57445L19.7597 7.81638L16.1156 9.13768C16.1156 8.90081 15.9674 8.83129 15.7472 8.81964H14.9196C14.8442 8.82831 14.8146 8.83999 14.8006 8.88341L13.6956 7.58769ZM8.47859 15.1399V8.23113L10.0224 10.4956V12.1708L8.47859 15.1399ZM10.5732 12.3052H11.8442C11.9281 12.3052 12.1187 12.1637 12.1187 11.9936L12.7564 12.3287V16.0318H8.65188L10.5732 12.3052ZM24.0352 12.3752L22.0553 13.6576L21.4143 8.49908L21.5054 8.37035C22.3928 8.66006 22.8967 8.94751 23.8152 9.7653L24.0352 12.3752Z" fill="white"/>
<path d="M11.507 17.8167H9.81125C9.5737 17.8167 9.38114 18.0136 9.38114 18.2566V19.9909C9.38114 20.2339 9.5737 20.4308 9.81125 20.4308H11.6047L12.5173 21.3576V23.9335L11.6465 24.8515C11.6055 24.8515 11.6022 24.8252 11.4502 24.8252H8.66658C8.42904 24.8252 8.23648 25.0221 8.23648 25.2651V28.1256C8.23648 28.3686 8.42904 28.5655 8.66658 28.5655H11.4502C11.6877 28.5655 11.8803 28.3686 11.8803 28.1256V25.4191L12.9474 24.3119H15.4272C15.6647 24.3119 15.8573 24.115 15.8573 23.872V21.3198C15.8573 21.0768 15.7202 20.8969 15.4489 20.8969H12.8554L11.9371 19.9694V18.2566C11.9371 18.0136 11.7445 17.8167 11.507 17.8167Z" fill="white"/>
</svg>
