<svg width="22" height="18" viewBox="0 0 22 18" fill="none" xmlns="http://www.w3.org/2000/svg">
<path fill-rule="evenodd" clip-rule="evenodd" d="M0.458008 1.66675C0.458008 0.907356 1.07362 0.291748 1.83301 0.291748H10.9997C11.7591 0.291748 12.3747 0.907356 12.3747 1.66675C12.3747 2.42614 11.7591 3.04175 10.9997 3.04175H1.83301C1.07362 3.04175 0.458008 2.42614 0.458008 1.66675ZM0.458008 9.00008C0.458008 8.24069 1.07362 7.62508 1.83301 7.62508H20.1663C20.9257 7.62508 21.5413 8.24069 21.5413 9.00008C21.5413 9.75947 20.9257 10.3751 20.1663 10.3751H1.83301C1.07362 10.3751 0.458008 9.75947 0.458008 9.00008ZM10.9997 14.9584C10.2403 14.9584 9.62467 15.574 9.62467 16.3334C9.62467 17.0928 10.2403 17.7084 10.9997 17.7084H20.1663C20.9257 17.7084 21.5413 17.0928 21.5413 16.3334C21.5413 15.574 20.9257 14.9584 20.1663 14.9584H10.9997Z" fill="white"/>
</svg>
