 <svg
              xmlns="http://www.w3.org/2000/svg"
              width="160"
              height="50"
              viewBox="0 0 160 50"
              fill="none"
            >
              <path
                d="M41.1533 12.4218L28.316 5.61609C26.7396 4.77857 24.8605 4.77857 23.2839 5.60903L10.313 12.4429C8.3565 13.6182 6.52664 15.0047 6.44922 19.0445V22.3029H11.4954V17.848L25.8035 10.2189L40.0061 17.848V22.3029H45.0523V19.0445C44.9678 14.9836 43.1239 13.6041 41.1533 12.4218Z"
                fill="#262626"
              />
              <path
                d="M39.9991 32.4518L28.323 38.9899V33.7115C32.4263 32.7474 35.1289 29.4043 35.1289 24.9353C35.1289 19.5161 31.3845 15.8774 25.8035 15.8774C20.2224 15.8774 16.4783 19.5161 16.4783 24.9353C16.4783 29.4113 19.1738 32.7474 23.2839 33.7115V38.997L11.5024 32.4518V27.5815H6.44922V30.8331C6.53367 34.8657 8.3565 36.2593 10.313 37.4347L23.2839 44.2684C24.8605 45.099 26.7466 45.099 28.316 44.2615L41.1462 37.4557C43.1168 36.2805 44.9678 34.894 45.0452 30.8331V27.5815H39.9991V32.4518ZM21.1656 24.9353C21.1656 21.9651 22.8124 20.3325 25.8035 20.3325C28.7946 20.3325 30.4416 21.9651 30.4416 24.9353C30.4416 27.8137 28.7101 29.5381 25.8035 29.5381C22.8968 29.5381 21.1656 27.8208 21.1656 24.9353Z"
                fill="#262626"
              />
              <path
                d="M133.308 13.9773H126.277L117.241 23.2391V9.40967H111.441V37.4135H117.241V30.4038L120.225 27.3494L128.093 37.4135H134.603L123.842 23.6544L133.308 13.9773Z"
                fill="#262626"
              />
              <path
                d="M152.218 13.3647C146.651 13.3647 143.703 15.645 142.605 16.743V13.9559H136.714V13.97V37.4133H142.605V18.5939L153.309 18.5517L153.288 13.3647C152.957 13.3647 152.599 13.3647 152.218 13.3647Z"
                fill="#262626"
              />
              <path
                d="M98.4062 13.3579C93.9582 13.3579 91.1643 16.2364 90.9601 16.4616V13.9561H85.0693V13.9632V37.4136H90.9601V18.0733C91.5161 18.0733 94.824 18.0733 95.3377 18.0733C95.5629 18.0733 95.7812 18.0804 95.9923 18.0874C97.4633 18.1367 98.5822 18.376 99.4127 18.8123C99.6873 18.9671 99.9405 19.1431 100.173 19.3331C101.419 20.445 101.749 22.3384 101.749 25.1606C101.749 27.3283 101.749 37.4206 101.749 37.4206H107.549V23.4081C107.542 17.6018 104.881 13.3579 98.4062 13.3579Z"
                fill="#262626"
              />
              <path
                d="M75.0411 17.1653C74.3161 16.1448 73.4645 15.3425 72.4651 14.7372C70.7268 13.8434 68.7562 13.3367 66.6659 13.3367C59.7195 13.3367 54.082 18.8896 54.082 25.7305C54.082 30.8963 57.2913 35.3231 61.852 37.1811C63.3369 37.7864 64.9627 38.1243 66.6659 38.1243C67.7357 38.1243 68.7772 37.9906 69.7695 37.7443C69.7978 37.7372 69.826 37.7301 69.854 37.7231C69.9597 37.6951 70.0582 37.6668 70.1566 37.6386C70.5931 37.5049 71.0082 37.3572 71.3953 37.1811C73.1336 36.414 74.3653 35.2598 75.0411 33.9578V37.4063H80.9318V13.949H75.0411V17.1653ZM67.6865 33.2963C63.0976 33.2963 60.1276 30.1995 60.1276 25.7376C60.1276 21.0009 63.0133 18.1788 67.6865 18.1788C71.8036 18.1788 75.2451 20.9164 75.2451 25.7376C75.2451 30.46 71.6838 33.2963 67.6865 33.2963Z"
                fill="#262626"
              />
            </svg>