<svg xmlns="http://www.w3.org/2000/svg" width="198" height="50" viewBox="0 0 198 50" fill="none">
  <g clip-path="url(#clip0_3255_15692)">
    <path d="M2.58203 15.1974V34.8024C2.58203 36.05 3.24671 37.2052 4.33081 37.8296L21.3079 47.6267C22.392 48.2511 23.7213 48.2511 24.8054 47.6267L41.7825 37.8296C42.8666 37.2052 43.5313 36.05 43.5313 34.8024V15.1974C43.5313 13.9498 42.8666 12.7946 41.7825 12.1702L24.8054 2.37308C23.7213 1.74869 22.392 1.74869 21.3079 2.37308L4.33081 12.1702C3.25737 12.7946 2.58203 13.9498 2.58203 15.1974Z" fill="#262626"/>
    <path d="M26.7684 28.7993L24.3443 35.4366C24.2732 35.6202 24.2732 35.8252 24.3443 36.0089L28.5066 47.4327L33.324 44.6508L27.5457 28.7993C27.413 28.4308 26.9011 28.4308 26.7684 28.7993Z" fill="#A3A3A3"/>
    <path d="M31.615 17.6311C31.4823 17.2626 30.9705 17.2626 30.8378 17.6311L28.4137 24.2684C28.3426 24.452 28.3426 24.657 28.4137 24.8406L35.2346 43.5464L40.052 40.7644L31.615 17.6311Z" fill="#A3A3A3"/>
    <path d="M23.0566 3.09827C23.1798 3.09827 23.2924 3.12907 23.4038 3.19068L41.7718 13.7959C41.9863 13.9191 42.119 14.143 42.119 14.3895V35.5999C42.119 35.8451 41.9863 36.0702 41.7718 36.1935L23.4038 46.8093C23.3019 46.8709 23.1787 46.9017 23.0566 46.9017C22.9346 46.9017 22.8208 46.8709 22.7095 46.8093L4.3509 36.2041C4.13645 36.0809 4.00375 35.857 4.00375 35.6105V14.3895C4.00375 14.1442 4.13645 13.9191 4.3509 13.7959L22.7189 3.19068C22.8208 3.12907 22.9441 3.09827 23.0566 3.09827ZM23.0566 0C22.4026 0 21.7474 0.174167 21.1645 0.511836L2.79643 11.117C1.63058 11.7912 0.904297 13.04 0.904297 14.3895V35.5999C0.904297 36.9494 1.63058 38.2076 2.79643 38.883L21.1645 49.4882C21.7474 49.8258 22.4014 50 23.0566 50C23.7118 50 24.3658 49.8258 24.9488 49.4882L43.3168 38.883C44.4933 38.2076 45.2089 36.96 45.2089 35.5999V14.3895C45.2089 13.04 44.4827 11.7817 43.3168 11.1064L24.9582 0.511836C24.3646 0.174167 23.7106 0 23.0554 0H23.0566Z" fill="#A3A3A3"/>
    <path d="M10.917 43.5674L12.6042 38.9443L15.9998 41.7665L12.8293 44.6717L10.917 43.5674Z" fill="#262626"/>
    <path d="M21.5116 12.8752H16.8588C16.5117 12.8752 16.1942 13.0897 16.0816 13.4167L6.09961 40.7845L10.917 43.5665L21.9108 13.4274C22.0033 13.162 21.809 12.8752 21.5116 12.8752Z" fill="#A3A3A3"/>
    <path d="M29.6626 12.8752H25.0099C24.6627 12.8752 24.3452 13.0897 24.2327 13.4167L12.8301 44.6707L17.6475 47.4526L30.0512 13.438C30.1531 13.162 29.9493 12.8752 29.6626 12.8752Z" fill="#A3A3A3"/>
    <path d="M65.0379 18.5718C65.4976 18.5718 65.8968 18.6642 66.2144 18.8585C66.5319 19.0528 66.8482 19.4213 67.1551 19.9734L73.2296 30.998C73.2912 31.1212 73.3007 31.2231 73.2711 31.3049C73.2403 31.3866 73.1479 31.4281 73.0057 31.4281H70.674C70.469 31.4281 70.3268 31.3464 70.2546 31.1923L68.956 28.8298H60.3342L59.0664 31.1923C58.9847 31.3558 58.8413 31.4281 58.647 31.4281H56.2644C56.1009 31.4281 56.0084 31.3866 55.9776 31.3049C55.9468 31.2231 55.9575 31.1212 56.0191 30.998L62.0427 19.9734C62.3495 19.4213 62.6457 19.0528 62.9431 18.8585C63.2393 18.6642 63.577 18.5718 63.9656 18.5718H65.039H65.0379ZM61.468 26.6818H67.7878L64.8732 21.3028C64.8222 21.221 64.7606 21.1701 64.6682 21.1701H64.5556C64.4739 21.1701 64.4028 21.2115 64.3507 21.3028L61.4669 26.6818H61.468Z" fill="#262626"/>
    <path d="M86.5769 18.5718C87.988 18.5718 88.9904 18.8893 89.6041 19.5232C90.2178 20.157 90.5247 21.0978 90.5247 22.3454V23.388C90.5247 24.4413 90.3102 25.2695 89.8801 25.8832C89.4501 26.4969 88.7546 26.8856 87.783 27.0597L90.9228 30.9459C90.9844 31.0075 91.0045 31.0987 90.9737 31.2219C90.9536 31.3452 90.8505 31.4056 90.6775 31.4056H88.315C88.1515 31.4056 88.0496 31.3855 87.988 31.3547C87.9264 31.3132 87.8648 31.2528 87.8044 31.171L84.9004 27.3559H78.9693V31.0075C78.9693 31.2729 78.8366 31.4068 78.57 31.4068H76.5854C76.2987 31.4068 76.166 31.2741 76.166 31.0075V19.1239C76.166 18.7554 76.3497 18.5718 76.7181 18.5718H86.5769ZM78.9788 25.1273H86.0047C86.629 25.1273 87.0686 24.9946 87.3245 24.728C87.5804 24.4626 87.7131 24.0527 87.7131 23.5006V22.734C87.7131 22.1819 87.5804 21.7731 87.3245 21.5065C87.0686 21.2411 86.629 21.1073 86.0047 21.1073H79.2133C79.0498 21.1073 78.9776 21.1784 78.9776 21.3324V25.1261L78.9788 25.1273Z" fill="#262626"/>
    <path d="M105.875 18.5718C107.133 18.5718 108.032 18.8277 108.564 19.3289C109.096 19.83 109.362 20.5871 109.362 21.599V22.4781C109.362 23.5006 108.973 24.2778 108.185 24.8098C109.024 25.3003 109.453 26.0882 109.453 27.1723V28.2362C109.453 28.7268 109.402 29.1663 109.289 29.5561C109.177 29.9447 109.003 30.2824 108.748 30.5585C108.492 30.8345 108.165 31.049 107.746 31.1923C107.326 31.3357 106.816 31.4174 106.202 31.4174H95.2992C94.9307 31.4174 94.7471 31.2338 94.7471 30.8653V19.1251C94.7471 18.7566 94.9307 18.573 95.2992 18.573H105.874L105.875 18.5718ZM97.5598 23.9105H105.087C105.701 23.9105 106.109 23.8181 106.334 23.6345C106.56 23.4508 106.661 23.1842 106.661 22.8264V22.202C106.661 21.8241 106.56 21.548 106.344 21.3632C106.13 21.189 105.781 21.0978 105.311 21.0978H97.8039C97.6404 21.0978 97.5681 21.1795 97.5681 21.3336V23.9105H97.5574H97.5598ZM97.5598 25.9152V28.6462C97.5598 28.8097 97.6416 28.882 97.7956 28.882H105.323C105.813 28.882 106.161 28.7895 106.365 28.6166C106.569 28.4436 106.683 28.1569 106.683 27.7682V27.0728C106.683 26.6948 106.57 26.4081 106.345 26.2138C106.12 26.0195 105.701 25.9176 105.087 25.9176H97.5598V25.9152Z" fill="#262626"/>
    <path d="M116.297 18.5718C116.562 18.5718 116.696 18.7045 116.696 18.9711V31.0087C116.696 31.2741 116.563 31.408 116.297 31.408H114.312C114.025 31.408 113.893 31.2753 113.893 31.0087V18.9817C113.893 18.7163 114.036 18.5824 114.312 18.5824L116.297 18.5718Z" fill="#262626"/>
    <path d="M135.523 18.5718C135.81 18.5718 135.943 18.7045 135.943 18.9711V20.7708C135.943 21.0575 135.799 21.1902 135.523 21.1902H129.765V31.0087C129.765 31.2741 129.632 31.408 129.366 31.408H127.361C127.096 31.408 126.962 31.2753 126.962 31.0087V21.1902H121.204C120.917 21.1902 120.784 21.0468 120.784 20.7708V18.9711C120.784 18.7057 120.928 18.5718 121.204 18.5718H135.522H135.523Z" fill="#262626"/>
    <path d="M150.035 18.5718C151.446 18.5718 152.448 18.8893 153.062 19.5232C153.676 20.157 153.983 21.0978 153.983 22.3454V23.388C153.983 24.4413 153.768 25.2695 153.338 25.8832C152.908 26.4969 152.213 26.8856 151.241 27.0597L154.381 30.9459C154.442 31.0075 154.463 31.0987 154.432 31.2219C154.412 31.3452 154.309 31.4056 154.136 31.4056H151.773C151.61 31.4056 151.508 31.3855 151.446 31.3547C151.384 31.3132 151.323 31.2528 151.262 31.171L148.358 27.3559H142.427V31.0075C142.427 31.2729 142.295 31.4068 142.028 31.4068H140.043C139.757 31.4068 139.624 31.2741 139.624 31.0075V19.1239C139.624 18.7554 139.808 18.5718 140.176 18.5718H150.035ZM142.446 25.1273H149.472C150.097 25.1273 150.536 24.9946 150.792 24.728C151.048 24.4626 151.181 24.0527 151.181 23.5006V22.734C151.181 22.1819 151.048 21.7731 150.792 21.5065C150.536 21.2411 150.097 21.1073 149.472 21.1073H142.681C142.517 21.1073 142.445 21.1784 142.445 21.3324V25.1261L142.446 25.1273Z" fill="#262626"/>
    <path d="M160.355 18.5718C160.62 18.5718 160.754 18.7045 160.754 18.9711V26.2932C160.754 26.7837 160.795 27.1936 160.877 27.51C160.959 27.837 161.091 28.0929 161.276 28.2765C161.46 28.4708 161.706 28.6035 162.023 28.6758C162.34 28.7576 162.729 28.799 163.209 28.799H168.292C168.773 28.799 169.161 28.7576 169.478 28.6758C169.795 28.5941 170.04 28.4614 170.224 28.2765C170.408 28.0822 170.541 27.8263 170.613 27.51C170.684 27.1829 170.725 26.7837 170.725 26.2932V18.9711C170.725 18.7057 170.858 18.5718 171.124 18.5718H173.129C173.395 18.5718 173.528 18.7045 173.528 18.9711V26.5692C173.528 27.4483 173.436 28.1948 173.252 28.8192C173.069 29.4329 172.771 29.9341 172.363 30.3227C171.954 30.7113 171.422 30.9874 170.767 31.1615C170.113 31.3357 169.325 31.4174 168.393 31.4174H163.106C162.176 31.4174 161.388 31.3357 160.743 31.1615C160.099 30.9874 159.567 30.7113 159.158 30.3227C158.749 29.9341 158.452 29.4329 158.257 28.8192C158.063 28.2054 157.971 27.4483 157.971 26.5692V18.9711C157.971 18.7057 158.114 18.5718 158.39 18.5718H160.353H160.355Z" fill="#262626"/>
    <path d="M181.412 18.5718C181.678 18.5718 181.913 18.5919 182.108 18.6227C182.302 18.6642 182.476 18.7246 182.62 18.8372C182.763 18.9391 182.896 19.0824 183.019 19.2566C183.131 19.4308 183.255 19.6654 183.377 19.9627L187.192 28.7682C187.243 28.8808 187.324 28.9317 187.448 28.9317H187.673C187.796 28.9317 187.878 28.8808 187.929 28.7682L191.744 19.9627C191.867 19.6665 191.989 19.4308 192.102 19.2566C192.214 19.0824 192.347 18.9391 192.501 18.8372C192.644 18.7353 192.818 18.663 193.002 18.6227C193.196 18.5813 193.421 18.5718 193.687 18.5718H195.65C196.284 18.5718 196.714 18.7151 196.939 19.0019C197.164 19.2886 197.266 19.7791 197.266 20.4746V31.0087C197.266 31.2741 197.123 31.408 196.847 31.408H194.975C194.709 31.408 194.575 31.2753 194.575 31.0087V21.426C194.575 21.3028 194.525 21.2423 194.432 21.2423H194.269C194.145 21.2423 194.064 21.2933 194.033 21.3857L190.33 29.6082C190.187 29.9353 190.034 30.222 189.88 30.4471C189.727 30.6722 189.563 30.8558 189.39 31.0099C189.215 31.1532 189.012 31.2658 188.787 31.3274C188.561 31.389 188.296 31.4198 187.989 31.4198H187.11C186.803 31.4198 186.538 31.389 186.313 31.3274C186.088 31.2658 185.883 31.1639 185.71 31.0099C185.535 30.8665 185.362 30.6722 185.219 30.4471C185.066 30.222 184.912 29.9459 184.769 29.6082L181.066 21.3857C181.025 21.2838 180.954 21.2423 180.831 21.2423H180.667C180.565 21.2423 180.524 21.3039 180.524 21.426V31.0087C180.524 31.2741 180.391 31.408 180.124 31.408H178.252C177.966 31.408 177.833 31.2753 177.833 31.0087V20.4746C177.833 19.7791 177.946 19.2886 178.16 19.0019C178.385 18.7151 178.814 18.5718 179.459 18.5718H181.412Z" fill="#262626"/>
  </g>
  <defs>
    <clipPath id="clip0_3255_15692">
      <rect width="196.359" height="50" fill="white" transform="translate(0.904297)"/>
    </clipPath>
  </defs>
</svg>