<svg xmlns="http://www.w3.org/2000/svg" width="140" height="50" viewBox="0 0 152 50" fill="none">
  <path fill-rule="evenodd" clip-rule="evenodd" d="M25.3881 0.00119608C11.5177 -0.133468 0.379098 11.1206 0.263672 24.8755C0.263672 38.7459 11.5177 50 25.2727 50C39.0276 50 50.147 38.8806 50.2817 25.2411C50.2625 11.2553 39.1431 0.13586 25.3881 0.00119608ZM37.277 11.2553C36.7768 11.64 36.1612 11.5053 35.6611 11.0052C35.2763 10.6397 35.0262 10.2549 34.6607 9.88938C33.9104 8.88902 32.7946 8.77359 31.9097 9.63929C31.2749 10.2741 30.6592 11.1398 30.2937 12.0248C29.428 14.6411 28.7932 17.3921 27.9275 20.1431L34.7954 21.1434L34.2952 23.0095L27.6774 22.0091L26.9271 26.0106L34.0451 27.0109L33.5449 28.877L26.5424 27.8766C26.0422 29.5118 25.7921 31.2432 25.1765 32.7438C24.5609 34.4944 23.9261 36.245 23.1758 37.861C22.1754 39.9964 20.4248 41.4777 18.0586 41.8624C16.6927 42.1125 15.1921 41.9971 14.0571 41.1122C13.6724 40.8621 13.3068 40.3619 13.3068 39.9964C13.3068 39.4962 13.5569 38.8806 13.9417 38.6305C14.1918 38.4958 14.8074 38.6305 15.1921 38.7459C15.5769 39.1307 15.9424 39.6116 16.1925 40.1118C16.9428 41.1122 17.9431 41.2276 18.9435 40.4966C20.0593 39.4962 20.6941 38.1111 21.0596 36.7452C21.8099 33.7441 22.5602 30.8777 23.195 27.8766V27.3764L16.5772 26.3761L16.8273 24.51L23.6952 25.5104L24.5609 21.6436L17.4429 20.5278L17.693 18.5271L25.0611 19.5275C25.3112 18.7772 25.4458 18.1616 25.6959 17.5267C26.3115 15.2759 26.9464 13.0251 28.4469 11.0244C29.9475 9.02368 31.6981 7.77323 34.3144 7.90789C35.4302 7.90789 36.5652 8.27341 37.3155 9.15835C37.4309 9.29301 37.681 9.5431 37.681 9.79319C37.6425 10.2549 37.6425 10.8897 37.277 11.2553Z" fill="#363636"/>
  <path d="M102.089 27.6842C98.6835 27.6842 95.3553 27.6842 92.0272 27.6842C91.7579 31.4548 94.6435 33.8018 98.3756 32.8591C99.3568 32.6091 100.28 32.1281 101.3 31.7241C101.492 32.1474 101.723 32.686 101.973 33.2631C99.4722 35.2061 96.7212 35.7256 93.8163 34.6675C91.0269 33.6479 89.9688 31.2817 89.6802 28.5114C89.4878 26.6069 89.7187 24.7601 90.6613 23.0479C92.4697 19.7006 96.7404 18.5848 99.6261 20.7971C101.357 22.1053 101.915 24.0098 102.069 26.0682C102.108 26.5492 102.089 27.0494 102.089 27.6842ZM92.0464 26.2798C94.6435 26.2798 97.2021 26.2798 99.7608 26.2798C100.203 24.0868 98.7027 21.8359 96.6827 21.6243C94.2203 21.3742 92.1426 23.4134 92.0464 26.2798Z" fill="#363636"/>
  <path d="M117.056 28.0692C117.133 25.0681 117.864 22.7788 120.018 21.2013C124.347 18.0271 130.06 20.605 130.676 25.9915C130.907 27.9923 130.734 29.9353 129.81 31.7628C128.56 34.2445 126.078 35.5911 123.366 35.3026C120.345 34.9755 118.229 33.2249 117.44 30.32C117.21 29.4543 117.133 28.5502 117.056 28.0692ZM128.541 27.4536C128.367 26.5494 128.29 25.5683 128.021 24.6449C127.483 22.8173 126.213 21.7592 124.539 21.6246C122.519 21.4707 120.999 22.2594 120.172 24.0485C119.153 26.2801 119.114 28.5694 120.114 30.8202C120.922 32.6093 122.596 33.5135 124.578 33.3596C126.29 33.2249 127.559 32.1091 128.079 30.1854C128.31 29.3197 128.387 28.4155 128.541 27.4536Z" fill="#363636"/>
  <path d="M63.2285 14.8335C66.8837 14.8335 70.5004 14.8335 74.2325 14.8335C74.194 15.5068 74.1363 16.1801 74.0978 16.8919C71.2314 16.8919 68.4227 16.8919 65.5755 16.8919C65.5755 19.162 65.5755 21.3551 65.5755 23.6636C68.3073 23.6636 71.0198 23.6636 73.7708 23.6636C73.7708 24.3562 73.7708 24.9333 73.7708 25.5874C71.0583 25.5874 68.3457 25.5874 65.537 25.5874C65.537 28.7039 65.537 31.7627 65.537 34.86C64.7291 34.86 63.998 34.86 63.2285 34.86C63.2285 28.1845 63.2285 21.5282 63.2285 14.8335Z" fill="#363636"/>
  <path d="M151.395 34.8982C150.664 34.8982 150.029 34.8982 149.298 34.8982C149.279 34.6097 149.26 34.3403 149.26 34.071C149.221 31.0699 149.202 28.0688 149.164 25.0678C149.164 24.8562 149.144 24.6445 149.106 24.4329C148.76 22.2398 147.74 21.4703 145.547 21.7974C144.239 21.9897 143.104 22.5669 142.373 23.6634C142.007 24.2021 141.738 24.9139 141.738 25.5487C141.661 28.3767 141.699 31.2238 141.699 34.0518C141.699 34.3019 141.699 34.5712 141.699 34.879C140.968 34.879 140.295 34.879 139.564 34.879C139.564 29.9734 139.564 25.0678 139.564 20.1429C140.18 20.1429 140.757 20.1429 141.411 20.1429C141.468 20.7778 141.526 21.4318 141.584 22.1821C141.776 21.9897 141.911 21.8743 142.046 21.7589C143.854 20.0852 145.97 19.4888 148.375 20.0083C149.51 20.2583 150.395 20.9509 150.78 22.0475C151.087 22.9324 151.337 23.875 151.357 24.8177C151.434 28.0304 151.395 31.2431 151.395 34.4558C151.434 34.5712 151.395 34.7059 151.395 34.8982Z" fill="#363636"/>
  <path d="M115.248 21.0858C115.075 21.5859 114.921 22.0861 114.786 22.4901C113.766 22.24 112.824 21.8937 111.862 21.7783C109.727 21.5282 108.226 22.5478 107.303 24.3946C106.264 26.4723 106.225 28.6269 107.187 30.7431C108.361 33.3594 111.419 34.2828 114.093 32.8785C114.324 32.763 114.555 32.6284 114.844 32.4552C114.978 32.8977 115.152 33.2825 115.19 33.7057C115.209 33.8981 114.998 34.1674 114.825 34.3021C113.536 35.2062 112.054 35.4563 110.535 35.2639C106.956 34.86 104.552 32.3013 104.263 28.6846C104.051 25.9721 104.571 23.5097 106.61 21.5475C108.822 19.4121 113.016 19.1812 115.248 21.0858Z" fill="#363636"/>
  <path d="M88.2184 33.2441C88.2761 33.9174 88.3338 34.4945 88.3915 35.1486C87.3142 35.1486 86.2946 35.264 85.3135 35.1101C84.063 34.9178 83.4474 33.9559 83.2743 32.3591C83.1973 31.5704 83.1204 30.8009 83.1204 30.0121C83.1011 25.145 83.1204 20.2971 83.1204 15.43C83.1204 15.2953 83.1396 15.1414 83.1396 14.949C83.8514 14.8528 84.544 14.7759 85.3327 14.6797C85.3327 15.0452 85.3327 15.3145 85.3327 15.6031C85.3519 20.7011 85.3519 25.7991 85.3712 30.8971C85.3712 31.0894 85.3712 31.2818 85.3904 31.4742C85.5443 33.1094 86.083 33.5326 87.7182 33.2826C87.8528 33.2441 87.9875 33.2633 88.2184 33.2441Z" fill="#363636"/>
  <path d="M77.0986 20.1045C77.8104 20.1045 78.4645 20.1045 79.1763 20.1045C79.1763 25.0293 79.1763 29.9157 79.1763 34.8598C78.503 34.8598 77.8297 34.8598 77.0986 34.8598C77.0986 29.9542 77.0986 25.0678 77.0986 20.1045Z" fill="#363636"/>
  <path d="M136.12 34.8983C135.389 34.8983 134.754 34.8983 134.042 34.8983C134.042 29.9927 134.042 25.0679 134.042 20.1238C134.716 20.1238 135.389 20.1238 136.12 20.1238C136.12 25.0486 136.12 29.935 136.12 34.8983Z" fill="#363636"/>
  <path d="M77.0986 17.3921C77.0986 16.5264 77.0986 15.6992 77.0986 14.8335C77.7912 14.8335 78.4645 14.8335 79.1955 14.8335C79.1955 15.68 79.1955 16.5072 79.1955 17.3921C78.503 17.3921 77.8489 17.3921 77.0986 17.3921Z" fill="#363636"/>
  <path d="M134.042 14.8142C134.735 14.8142 135.389 14.8142 136.101 14.8142C136.101 15.6799 136.101 16.5071 136.101 17.3921C135.408 17.3921 134.754 17.3921 134.042 17.3921C134.042 16.5648 134.042 15.7184 134.042 14.8142Z" fill="#363636"/>
</svg>