<svg xmlns="http://www.w3.org/2000/svg" width="160" height="50" viewBox="0 0 160 50" fill="none">
  <path fill-rule="evenodd" clip-rule="evenodd" d="M49.2194 16.8843V7.14502H52.4669V42.8548H49.2194V26.6236H45.975V42.8548H42.7286V26.6236H7.01988V29.869H39.4832V42.8548H36.2357V33.1155H20.0046V42.8548H16.7571V33.1155H13.5117V42.8548H10.2663V33.1155H7.02093V42.8548H3.77344V7.14502H7.02093V23.3762H10.2663V7.14502H13.5117V23.3762H49.2215V20.1287H16.756V7.14502H20.0035V16.8843H36.2347V7.14502H39.4832V16.8843H42.7286V7.14502H45.975V16.8843H49.2194ZM74.4021 23.6534V20.1287H77.0467V29.8228H74.4021V26.2981H66.4724V29.8228H63.8289V20.1287H66.4735V23.6534H74.4021ZM124.629 26.2981H121.984L124.629 23.6534V20.1297H121.984V23.6534H114.056V20.1297H111.411V29.8228H114.056V26.2981H121.984V29.8228H124.629V26.2981ZM91.1437 20.1287H79.6882V29.8228H82.3328V26.2981H90.2646V29.8218H92.9092V20.1287H91.1447H91.1437ZM82.3328 23.6534V22.7712H90.2646V23.6534H82.3328ZM108.766 20.1287V22.7733H98.1932V27.1771H108.766V29.8218H95.5475V20.1287H108.765H108.766ZM140.487 22.7733V20.1287H127.269V29.8228H140.487V27.1782H129.914V26.2981H140.487V23.6534H129.914V22.7733H140.487ZM153.703 26.2981V20.1287H156.348V29.8228H153.703L145.774 23.6534V29.8218H143.13V20.1287H145.774L153.703 26.2981Z" fill="#3E3E3E"/>
</svg>