<svg xmlns="http://www.w3.org/2000/svg" width="190" height="50" viewBox="0 0 190 50" fill="none">
  <g clip-path="url(#clip0_3980_19564)">
    <path d="M22.8151 12.8461C23.7625 12.7372 24.6281 12.9352 25.4929 12.9996L25.532 12.7811C24.6078 12.2956 23.6852 11.8076 22.7591 11.326C22.4724 11.1771 22.1745 11.0476 21.8838 10.9064C21.7804 10.8561 21.6191 10.7259 21.5899 10.751C20.7951 11.444 19.7072 10.5827 18.8391 11.355C18.1348 11.9817 17.136 12.2834 16.2899 12.8423H18.752C17.8805 13.6088 17.3571 14.5778 16.0733 14.6023C14.5802 14.6306 14.8032 14.5751 14.7208 15.898C14.6875 16.4317 14.5268 16.8521 14.1121 17.2318C13.6087 17.692 13.6653 18.222 14.1926 18.661C14.3794 18.8164 14.6134 18.9414 14.4749 19.2096C14.3312 19.4875 14.0503 19.3257 13.8428 19.2972C10.4397 18.8338 7.03736 18.3651 3.63693 17.881C1.90972 17.6348 1.89606 17.6179 1.73804 19.2979C1.61578 20.5963 1.73804 21.8909 1.86744 23.1853C1.91882 23.6985 2.20431 23.6946 2.58928 23.6327C6.17701 23.0512 9.76606 22.48 13.3525 21.894C14.5023 21.7064 14.4951 21.6909 14.5601 22.8501C14.6121 23.7764 14.7076 24.7009 14.7278 25.6272C14.7402 26.2125 14.9086 26.5304 15.5609 26.5304C15.7936 26.5304 16.2268 26.4156 16.2555 26.7901C16.2879 27.2176 16.1996 27.6695 16.0798 28.0867C16.0251 28.2787 15.7416 28.1627 15.566 28.1382C15.1837 28.086 15.0472 28.2285 15.1239 28.6043C15.2253 29.1039 15.304 29.6086 15.4029 30.1083C15.7072 31.6413 15.65 33.2085 15.213 35.1012C14.9613 35.1374 15.0394 34.6215 14.7871 34.797C14.5048 34.9928 14.2928 35.3217 14.2589 35.6678C14.2369 35.8935 14.298 36.181 14.5659 36.3183C14.7318 36.4034 15.0796 36.3313 14.9991 36.6297C14.9274 36.8953 14.6231 36.6567 14.4476 36.7264C14.0443 36.8869 13.6288 37.0345 13.2432 37.2184C12.8101 37.4246 12.8888 37.7881 13.3661 37.9912C13.7094 38.1376 14.0555 38.2852 14.413 38.3903C14.7143 38.4787 14.8032 38.6134 14.7812 38.9363C14.6914 40.2527 14.6973 40.2746 13.4449 39.7917C8.12466 37.7404 4.2157 34.1684 1.84794 29.013C-1.90952 20.8296 0.194217 11.1578 6.96648 5.21983C9.17553 3.28325 11.672 1.82695 14.4932 0.99212C20.6541 -0.830337 26.5699 -0.19599 31.9414 3.34385C38.7429 7.82551 41.8598 14.2534 41.3695 22.3447C41.2251 24.7241 40.606 27.0191 39.5363 29.1606C38.7012 30.8329 37.7213 32.4026 36.4805 33.8506C34.0802 36.6529 31.1435 38.5966 27.7222 39.9066C27.2059 40.1037 27.0401 40.0832 26.9296 39.4669C26.7897 38.692 27.001 38.2987 27.7541 38.1434C27.9121 38.1105 28.0656 38.0402 28.2106 37.9662C28.3686 37.8848 28.6196 37.8455 28.5917 37.6186C28.5637 37.3923 28.4395 37.1139 28.1813 37.1178C27.6741 37.1248 27.3463 36.5673 26.8046 36.7322C26.7038 36.7631 26.6102 36.6657 26.6284 36.5736C26.642 36.5027 26.7383 36.4048 26.8091 36.395C27.2722 36.33 27.4452 35.905 27.3282 35.6453C27.1727 35.3004 27.2137 34.6499 26.4945 34.7415C26.3058 34.7654 26.341 34.5056 26.3227 34.3746C26.0691 32.5412 25.7388 30.7071 26.3286 28.8719C26.4677 28.4393 26.536 28.0692 25.8116 28.1118C25.3493 28.1388 25.5268 27.6276 25.4455 27.3504C25.2784 26.7811 25.4624 26.4583 26.1069 26.4975C26.5524 26.5246 26.6973 26.3015 26.7402 25.8761C26.8586 24.6982 26.9711 23.5211 26.9581 22.3376C26.9529 21.8862 27.1148 21.7766 27.5428 21.8469C30.2265 22.2898 32.9213 22.6735 35.5948 23.1711C36.7588 23.3877 37.9412 23.4554 39.0954 23.7094C39.4153 23.7796 39.5617 23.6688 39.6117 23.338C39.8745 21.6052 39.8555 19.873 39.6676 18.1356C39.5916 17.4285 39.0803 17.6664 38.7215 17.7127C36.727 17.9719 34.7377 18.2658 32.7465 18.5455C31.0329 18.786 29.3194 19.0279 27.6045 19.258C27.3997 19.2857 27.1207 19.4701 26.9971 19.1484C26.8963 18.8866 27.152 18.8067 27.3158 18.6841C27.7859 18.3329 27.9479 17.7456 27.5499 17.4219C26.7774 16.7934 26.8098 15.9747 26.7286 15.167C26.685 14.7376 26.4729 14.5822 26.0951 14.626C24.6177 14.7962 23.7157 13.917 22.8151 12.8461ZM26.815 5.42933C26.7247 5.1373 26.8333 4.8227 26.6713 4.52808C26.4859 4.19159 26.1536 4.29601 25.8878 4.20769C25.7922 4.1761 25.6796 4.25798 25.7166 4.35339C25.8818 4.77951 26.0126 5.23593 26.2682 5.60533C26.4833 5.91605 26.5256 5.1792 26.8235 5.42096C26.6524 5.87931 26.7865 6.04692 27.2787 5.91088C27.4556 5.8619 27.6468 5.8664 27.8308 5.83999C28.8726 5.69171 29.9137 5.53828 31.042 5.23593C29.5066 4.64156 28.1371 4.65832 26.815 5.42933ZM2.16658 16.5981C2.34412 16.515 2.48654 16.4795 2.58928 16.3963C4.80161 14.6016 7.15636 12.995 9.44802 11.3061C10.4606 10.5596 10.6251 9.93487 9.88111 8.92792C9.39729 8.27361 8.88813 7.63472 8.44204 6.95525C8.15457 6.51753 7.96339 6.5375 7.60443 6.88563C5.33747 9.07939 3.65904 11.6413 2.67772 14.6292C2.47482 15.2463 2.09701 15.8303 2.16658 16.5981ZM39.2866 16.1165C39.2781 16.0868 39.2587 16.0205 39.241 15.9534C38.3326 12.4252 36.5383 9.41338 33.8994 6.88433C33.5697 6.56846 33.3948 6.60583 33.1497 6.96363C32.6632 7.67273 32.1384 8.35607 31.6286 9.04912C31.0687 9.8098 31.2039 10.606 31.9693 11.1765C34.2947 12.9075 36.6152 14.6455 38.9387 16.3783C39.003 16.4266 39.0551 16.5304 39.1715 16.4543C39.2859 16.3796 39.3106 16.2771 39.2866 16.1165ZM2.24787 24.6673C2.23812 24.7318 2.20691 24.8027 2.22056 24.8627C2.99963 28.2896 4.66636 31.2352 7.12059 33.7564C7.34821 33.9904 7.48798 33.9349 7.68249 33.7235C8.45238 32.8829 9.24517 32.0629 10.0092 31.217C10.3943 30.7917 10.3188 30.2456 9.86361 29.9213C7.51205 28.2484 5.15928 26.5768 2.80259 24.911C2.64391 24.7988 2.50995 24.5964 2.24787 24.6673ZM39.3288 24.6731C39.005 24.6597 38.8534 24.864 38.6714 24.9929C36.4207 26.5852 34.1745 28.1839 31.9277 29.7814C31.2527 30.261 31.2117 30.7374 31.7547 31.3782C32.3979 32.137 33.1821 32.7733 33.7278 33.6172C33.9938 34.0291 34.2376 33.9388 34.5446 33.6172C36.4298 31.6362 37.8435 29.3733 38.7526 26.8031C38.9965 26.1127 39.2339 25.4177 39.3295 24.6744L39.3288 24.6731ZM36.6145 25.7079C33.889 26.8211 31.2175 27.4007 28.4798 27.8777C28.7523 28.4696 29.4253 28.6765 29.4222 29.3567C29.0195 29.0511 28.6879 28.681 28.3477 28.3181C28.2723 28.2375 28.1748 28.144 28.0461 28.1969C27.9088 28.2535 27.9342 28.3948 27.9459 28.4993C28.0142 29.1136 27.8341 29.6951 27.7177 30.2836C27.5719 31.0192 27.4074 31.7509 27.2131 32.6631C27.8535 32.2106 28.3302 31.8444 28.8361 31.5232C29.5951 31.0424 30.231 30.5325 29.6517 29.4591C30.5464 30.0961 31.2547 29.8756 32.0116 29.2832C33.1275 28.4102 34.3241 27.6392 35.4713 26.8057C35.8491 26.5311 36.279 26.2951 36.6145 25.7079ZM5.26659 17.2769C7.69873 17.6218 10.1315 17.9654 12.563 18.3123C12.8706 18.3561 12.9057 18.1723 12.9187 17.9404C12.9681 17.0868 13.0202 16.2325 13.0813 15.3796C13.104 15.0625 13.065 14.9529 12.667 15.0084C10.7435 15.2752 8.87381 15.7426 7.04191 16.37C6.43192 16.5788 5.8161 16.78 5.26659 17.2769ZM36.2588 17.2577C36.2574 17.1951 36.2561 17.1325 36.2549 17.07C33.8402 15.976 31.2872 15.3604 28.6716 14.9587C28.3205 14.9046 28.3581 15.1438 28.3732 15.352C28.431 16.1842 28.5013 17.0158 28.5539 17.8488C28.5786 18.2413 28.7153 18.3452 29.1354 18.2594C29.8883 18.1053 30.6616 18.0474 31.425 17.941C33.0364 17.7159 34.6479 17.4857 36.2588 17.2577ZM12.9817 24.5223C12.961 24.1072 12.9213 23.6912 12.9252 23.2761C12.9285 22.901 12.7835 22.783 12.4154 22.8597C11.9368 22.959 11.4523 23.0311 10.9691 23.1098C9.26858 23.3871 7.56803 23.6605 5.86811 23.9402C5.72375 23.964 5.50654 23.9124 5.50525 24.1593C5.5046 24.305 5.63791 24.2992 5.74975 24.3379C7.62001 24.9812 9.50333 25.5744 11.4549 25.9385C13.1671 26.2577 13.1638 26.2744 12.9817 24.5223ZM35.9752 24.1155C35.888 24.0504 35.8393 23.9847 35.7814 23.975C33.5248 23.6075 31.267 23.2504 29.0117 22.8778C28.6913 22.8249 28.6457 22.9616 28.565 23.2284C28.3341 23.9955 28.407 24.7724 28.37 25.5499C28.3432 26.103 28.4779 26.2371 29.0209 26.1404C30.7917 25.8238 32.5455 25.4435 34.2481 24.8601C34.8307 24.6609 35.4432 24.5114 35.9752 24.1155ZM28.5213 13.2788C30.0152 13.5463 31.4758 13.8105 32.9129 14.187C34.2916 14.5481 35.6227 15.0657 36.9942 15.4693C35.2182 14.0189 33.4046 12.6805 31.585 11.3506C30.9569 10.8915 30.1817 11.0186 29.7309 11.6329C29.3395 12.1667 28.9473 12.6999 28.5213 13.2788ZM4.69627 15.1876C4.985 15.3249 5.13911 15.3185 5.29715 15.2547C7.64608 14.3025 10.0977 13.7319 12.5968 13.3458C13.0319 13.2788 12.9564 13.0988 12.762 12.8423C12.4531 12.4349 12.1559 12.0184 11.8516 11.6072C11.5082 11.1436 10.5497 10.9379 10.0697 11.2681C8.27228 12.5045 6.66213 13.9905 4.69627 15.1876ZM15.1031 12.8944C16.7048 12.0687 18.1959 11.3248 19.6584 10.5299C20.0298 10.3281 20.0688 9.97485 19.6156 9.73633C18.5854 9.19481 17.5521 8.65972 16.5233 8.11564C16.3328 8.01506 16.1708 7.95578 16.0923 8.22332C15.6565 9.70797 15.2916 11.206 15.1031 12.8944ZM26.3676 12.4284C26.1459 11.1552 25.904 9.95227 25.5646 8.76996C25.3303 7.95512 25.3102 7.92485 24.5631 8.37288C23.7261 8.87507 22.8697 9.33531 21.9827 9.74021C21.7927 9.82719 21.5554 9.86718 21.543 10.1012C21.5286 10.3623 21.7452 10.4751 21.9651 10.5918C22.9418 11.1094 24.0116 11.446 24.9168 12.1074C25.212 12.3227 25.5613 12.4742 25.9027 12.6148C26.114 12.7018 26.3853 12.7656 26.3676 12.4284ZM5.23407 26.11C5.33616 26.1868 5.42525 26.2532 5.5137 26.3203C6.78765 27.2866 8.1559 28.1234 9.38104 29.1632C9.84995 29.561 10.3818 30.1322 11.1441 29.7879C11.7508 29.5139 12.0941 28.9279 12.5532 28.4799C12.7067 28.3297 12.9954 28.1905 12.9024 27.9357C12.825 27.723 12.5337 27.7946 12.3393 27.7611C10.1328 27.3795 7.95039 26.9069 5.8538 26.1017C5.66848 26.0308 5.47793 25.927 5.23407 26.11ZM32.9265 6.64903C30.9536 6.96814 29.0572 7.30981 27.0615 7.58896C27.808 8.41155 28.8109 8.71002 29.4884 9.44108C29.9586 9.94839 30.6017 9.66411 30.9003 9.33728C31.6533 8.51082 32.2606 7.55351 32.9265 6.64903ZM14.3006 7.75139C12.4348 7.39876 10.6635 7.04873 8.68846 6.6226C9.42786 7.63151 10.0131 8.51469 10.6972 9.31535C10.934 9.59189 11.4445 9.78984 11.8314 9.53516C12.6788 8.97624 13.4799 8.34964 14.3006 7.75139ZM27.7099 32.7778C27.8477 32.8926 27.8776 32.9403 27.914 32.9454C29.6783 33.195 31.4198 33.5534 33.1314 34.0472C33.2575 34.0833 33.3492 34.0885 33.441 33.9917C33.5945 33.8299 33.4188 33.7319 33.348 33.6539C32.7587 32.9996 32.1566 32.3562 31.5558 31.7122C31.3568 31.4988 29.9716 31.1926 29.7348 31.3505C29.0631 31.7979 28.4134 32.2783 27.7099 32.7778ZM17.3317 7.89642C17.3193 7.95578 17.3063 8.01572 17.2939 8.075C17.9735 8.42697 18.6563 8.77127 19.3313 9.13224C20.3666 9.68538 21.3766 9.83494 22.4359 9.14262C23.0133 8.7655 23.674 8.51535 24.2887 8.19174C24.4284 8.1182 24.6618 8.10468 24.643 7.80687C22.2045 7.99576 19.767 7.9261 17.3317 7.89642ZM13.9495 32.794C13.199 32.2659 12.6053 31.7078 11.8997 31.4041C11.4699 31.2191 10.7064 31.23 10.3753 31.4969C9.55014 32.1621 8.88614 33.0241 8.15715 33.8067C10.0632 33.3605 11.9699 33.28 13.9495 32.794ZM27.003 8.10402C27.5525 9.79627 27.823 11.3724 28.1573 13.1498C28.7491 12.344 29.2459 11.7355 29.6601 11.076C29.8669 10.7465 29.9137 10.2534 29.6119 9.97741C28.8687 9.2973 28.0448 8.70811 27.003 8.10402ZM24.1514 6.20873C22.8937 5.08314 21.4533 4.68926 19.9667 4.90586C19.0959 5.03222 18.2994 5.66205 17.4696 6.06561C19.7203 6.32735 21.8936 6.33444 24.1514 6.20873ZM14.376 8.17756C13.5014 8.82025 12.8107 9.33151 12.1162 9.83626C11.9543 9.95424 11.8782 10.0896 11.86 10.2972C11.7586 11.4789 12.8049 11.9656 13.3258 12.7939C13.6418 11.2887 13.9546 9.82719 14.376 8.17756ZM20.6209 1.66321C20.1156 1.69028 19.6162 1.97459 19.1708 2.36461C18.6173 2.8494 18.6264 2.90162 19.3034 3.24135C19.711 3.44571 20.1 3.72549 20.5995 3.42959C20.7054 3.36706 20.9148 3.44764 21.0657 3.4947C21.4188 3.60558 22.4984 3.30516 22.6999 3.03506C22.7863 2.91901 22.7767 2.81393 22.6881 2.72756C22.1373 2.19055 21.5768 1.66643 20.6209 1.66321ZM13.3693 28.3329C12.7399 28.7449 12.2365 29.1955 11.8587 29.7312C11.5687 30.1425 11.6766 30.7169 12.0388 31.0154C12.6716 31.5363 13.4097 31.9314 14.2024 32.4432C13.9143 31.0218 13.6477 29.7073 13.3693 28.3329ZM9.65936 35.2901C9.64895 35.3565 9.6392 35.4222 9.62879 35.4887C10.5679 35.6704 11.5063 35.8529 12.4459 36.0321C12.4876 36.0398 12.5513 36.0295 12.578 36.0018C12.9096 35.6602 13.2914 35.4771 13.7823 35.3971C14.0749 35.3494 14.3174 34.9226 14.2708 34.6403C14.22 34.336 13.8344 34.5151 13.6165 34.5461C12.2866 34.737 10.9574 34.9382 9.65936 35.2901ZM17.1651 2.04357C15.9303 2.19958 14.9067 2.56251 13.8864 2.93514C13.7335 2.99121 13.4533 3.02023 13.478 3.17302C13.5144 3.39993 13.6308 3.68359 13.9364 3.70937C14.1959 3.7313 14.426 3.87634 14.6544 3.90341C15.1986 3.96724 15.8066 3.95757 16.2008 3.53015C16.5662 3.13369 16.8011 2.61925 17.1651 2.04357ZM24.4485 2.12802C24.9343 2.8062 25.0163 3.81832 26.1933 3.91953C26.8281 3.97433 27.2494 3.56175 27.8034 3.46698C28.0357 3.42701 28.0435 3.09049 27.7235 2.96995C26.683 2.57863 25.6321 2.21891 24.4485 2.12802ZM31.8809 35.3623C30.2772 34.9458 28.8024 34.6661 27.2429 34.5126C27.4869 35.6034 28.5552 35.4829 29.1002 36.027C29.1354 36.0624 29.2407 36.0533 29.3031 36.0341C30.1036 35.7833 30.9679 35.7904 31.8809 35.3623ZM16.9603 5.87157C17.6816 5.52538 18.3026 5.26365 18.8852 4.93552C19.2435 4.73374 19.8685 4.74212 19.8659 4.19932C19.8633 3.6636 19.226 3.70034 18.891 3.45409C18.5159 3.17817 18.2648 3.32322 18.0516 3.68294C17.6639 4.33599 17.2634 4.98066 16.9603 5.87157ZM24.4394 5.77745C24.3198 5.15728 24.0825 4.78531 23.8698 4.40626C23.3938 3.55788 22.7414 3.3778 21.913 3.86602C21.8929 3.87764 21.8708 3.88537 21.8499 3.89632C21.5066 4.07942 21.4429 4.287 21.8285 4.48232C22.6518 4.90007 23.4829 5.30426 24.4394 5.77745ZM10.2505 5.2875C11.8529 5.58018 13.2355 5.89026 14.6999 5.95989C14.192 4.92392 12.799 4.39787 10.2505 5.2875ZM9.90127 35.9328C9.87661 35.9876 9.85253 36.0424 9.8278 36.0972C10.5769 36.531 11.3346 36.9507 12.0714 37.4039C12.5532 37.7005 12.6996 37.3368 12.8315 37.0371C12.9792 36.7012 12.7906 36.4279 12.4596 36.3615C11.6122 36.1927 10.7551 36.0727 9.90127 35.9328ZM31.5993 35.8955C30.7656 36.0463 29.9281 36.1765 29.1009 36.3569C28.7698 36.4292 28.6008 36.7064 28.7405 37.0449C28.8694 37.3563 29.0546 37.616 29.4781 37.3819C30.222 36.9719 30.9769 36.5807 31.5993 35.8955ZM10.5165 4.73439C11.3151 4.63189 12.0687 4.40626 12.8719 4.40882C13.1964 4.40948 13.3538 4.00591 13.2737 3.66811C13.1873 3.30194 12.9362 3.31547 12.6319 3.46634C11.8958 3.83121 11.1661 4.20382 10.5165 4.73439ZM30.2318 4.71827C30.4626 4.74083 30.6153 4.72085 30.6674 4.57258C30.7319 4.39014 30.5438 4.35403 30.4359 4.29537C29.9287 4.01753 29.415 3.75127 28.905 3.47794C28.645 3.33869 28.3719 3.20847 28.219 3.58882C28.0766 3.94275 28.2158 4.20447 28.582 4.3289C29.1458 4.52036 29.7648 4.47717 30.2318 4.71827ZM15.8841 4.14322C15.3892 4.33212 14.9093 4.13099 14.7084 4.62802C14.5165 5.10184 14.882 5.35841 15.1753 5.77874C15.4229 5.20757 15.6239 4.74406 15.8841 4.14322Z" fill="#262626"/>
    <path d="M25.5283 49.9251C25.644 49.428 25.6595 48.9961 25.6193 48.5635C25.6023 48.3825 25.6446 48.1439 25.4716 48.0504C25.268 47.9402 25.1575 48.1877 25.0204 48.2876C23.8934 49.1057 22.6246 49.5821 21.2342 49.918C21.2876 49.2398 21.4047 48.6222 21.1309 47.9504C19.9811 48.8898 18.6955 49.4512 17.2349 49.8341C17.3318 49.1895 17.3903 48.5996 17.1243 47.9653C15.8536 48.9761 14.4029 49.5576 12.8505 49.9412C12.3368 50.0681 12.2652 50.0094 12.3511 49.4874C12.5638 48.1967 13.1764 47.28 14.5134 46.9783C14.9029 46.8906 14.89 46.6199 14.9237 46.353C15.4394 42.2368 15.9518 38.1194 16.4649 34.0025C16.8233 31.128 17.175 28.2523 17.5445 25.3789C17.5874 25.0417 17.6114 24.8787 17.1692 24.7697C16.6743 24.6479 16.2373 24.2958 15.5818 23.9394C16.8246 23.7015 16.6944 22.9176 16.6834 22.1724C16.6685 21.1757 16.6756 20.1785 16.6808 19.1811C16.6847 18.4636 16.2654 17.9776 15.5278 17.8802C15.3698 17.8595 15.2065 17.877 15.0486 17.877C15.005 17.6037 15.2171 17.5276 15.3419 17.4109C17.0438 15.8212 18.7495 14.2353 20.4617 12.6565C20.6385 12.4934 20.7765 12.1685 21.1309 12.5012C22.9947 14.2528 24.8766 15.9855 26.7501 17.7222C26.6324 17.9641 26.4484 17.8569 26.3072 17.8719C25.4729 17.9588 25.0502 18.4147 25.0522 19.2328C25.0541 20.23 25.0632 21.2266 25.0495 22.224C25.0392 22.9518 24.9196 23.7175 26.0289 23.8692C25.633 24.3281 25.2089 24.5634 24.7954 24.6898C24.2867 24.8452 24.3083 25.1198 24.3583 25.5098C25.2402 32.4534 26.1194 39.3971 26.9816 46.3433C27.0323 46.7527 27.1358 46.9977 27.5844 47.0111C27.695 47.0143 27.8088 47.0762 27.9128 47.1273C28.4468 47.3916 29.0781 47.7346 29.103 48.2985C29.1218 48.744 28.4012 48.8787 27.9746 49.0889C27.2249 49.4589 26.4334 49.722 25.5308 49.9251H25.5283ZM20.9378 46.1713C22.3151 46.1713 23.6938 46.1467 25.0704 46.1834C25.5991 46.1977 25.6947 46.019 25.6219 45.5497C25.4827 44.6581 25.3734 43.7615 25.281 42.8641C25.2376 42.4418 25.1146 42.3368 24.6672 42.458C22.2396 43.1168 19.8101 43.7717 17.3624 44.3513C16.6042 44.5306 16.2926 44.8362 16.2536 45.6161C16.2276 46.1338 16.3811 46.1828 16.805 46.177C18.1823 46.1596 19.5603 46.1713 20.9378 46.1713ZM16.8239 41.0068C16.6613 41.4749 16.9989 41.4349 17.5132 41.2944C19.1969 40.8334 20.8929 40.4151 22.5778 39.9553C23.3114 39.7555 24.3349 39.827 24.6958 39.2681C25.0567 38.7093 24.5873 37.8029 24.5449 37.0441C24.521 36.6147 24.4169 36.5045 23.957 36.6354C22.479 37.0544 20.9799 37.3999 19.4979 37.8054C18.7385 38.013 17.7193 37.9504 17.2921 38.5043C16.8701 39.051 16.9819 40.0025 16.8239 41.0068ZM17.6257 34.7994C17.4996 35.2938 17.8201 35.1932 18.1389 35.1101C19.7164 34.6975 21.2935 34.2844 22.8724 33.8781C24.0768 33.5687 24.0788 33.5726 23.9414 32.3142C23.9063 31.9925 23.8355 31.6715 23.8309 31.3499C23.825 30.9482 23.6469 30.8959 23.3015 30.9894C22.2676 31.2692 21.2271 31.5277 20.1912 31.8017C19.4713 31.9918 18.5765 32.0003 18.0849 32.4444C17.5567 32.9208 17.8111 33.8801 17.6492 34.6162C17.6394 34.6615 17.6375 34.7078 17.6257 34.7994ZM23.3581 27.5824C23.2957 27.077 23.2209 26.5728 23.1741 26.0661C23.1436 25.7336 22.9888 25.6413 22.6682 25.6961C21.6018 25.8786 20.5696 26.1551 19.6723 26.785C18.981 27.2704 18.4997 27.8925 18.3833 28.7628C18.3339 29.1302 18.4094 29.2243 18.7755 29.1263C20.1717 28.7537 21.5711 28.396 22.9699 28.0323C23.2041 27.9717 23.4388 27.9093 23.3581 27.5824ZM20.9702 13.5404C20.9702 14.6369 20.9722 15.5124 20.9689 16.3871C20.9683 16.6083 20.965 16.801 21.2811 16.7985C22.2904 16.7901 23.2989 16.7953 24.4961 16.7953C23.2704 15.6632 22.1934 14.6705 20.9702 13.5404ZM24.028 21.2719C24.028 20.8083 24.0319 20.3441 24.0267 19.8806C24.0215 19.3978 23.8108 19.0361 23.2917 19.0575C22.8184 19.0767 22.6291 19.4203 22.633 19.8806C22.6401 20.7844 22.6559 21.6895 22.6259 22.5926C22.611 23.0472 22.7618 23.1677 23.2203 23.1923C23.8634 23.2264 24.1209 23.0349 24.0371 22.3831C23.9902 22.0183 24.0286 21.6432 24.028 21.2719ZM19.1273 21.3156C19.1273 20.8315 19.1345 20.348 19.1254 19.8638C19.1162 19.3822 18.8886 19.0329 18.3781 19.0587C17.9106 19.0825 17.7239 19.4209 17.7291 19.8813C17.7401 20.7799 17.7597 21.6799 17.7213 22.5766C17.6993 23.082 17.8988 23.1677 18.3619 23.1923C18.9796 23.2251 19.2125 23.0355 19.1364 22.4205C19.0915 22.0577 19.128 21.6844 19.1273 21.3156ZM21.562 21.295C21.562 20.8309 21.5555 20.3673 21.564 19.9031C21.5724 19.4145 21.378 19.0575 20.8584 19.058C20.3778 19.0587 20.1724 19.4042 20.1698 19.8561C20.1638 20.807 20.1665 21.7579 20.1685 22.7088C20.1685 22.9183 20.1651 23.1085 20.4584 23.1749C21.2856 23.3618 21.562 23.1645 21.5627 22.3381C21.5627 21.99 21.562 21.6432 21.562 21.295Z" fill="#A3A3A3"/>
    <path d="M54.395 31.8488V16.9023H58.4941V28.5792H64.5984V31.8488H54.395Z" fill="#262626"/>
    <path d="M70.3544 16.9023V31.8488H66.2554V16.9023H70.3544Z" fill="#262626"/>
    <path d="M82.1024 21.8355C82.0382 21.5777 81.9378 21.3515 81.7997 21.1569C81.6623 20.9574 81.4903 20.7895 81.2835 20.6532C81.0819 20.5122 80.8464 20.4076 80.5761 20.3394C80.3102 20.2665 80.0178 20.23 79.6988 20.23C79.0106 20.23 78.4235 20.393 77.9369 20.719C77.4547 21.045 77.0862 21.5145 76.8307 22.1275C76.5804 22.7404 76.4549 23.4801 76.4549 24.3461C76.4549 25.222 76.5752 25.9711 76.816 26.5939C77.0567 27.2167 77.4156 27.6935 77.8926 28.0244C78.3689 28.3552 78.9611 28.5206 79.6693 28.5206C80.2933 28.5206 80.8116 28.4306 81.2252 28.2505C81.6424 28.0706 81.9547 27.8152 82.1608 27.4842C82.3675 27.1535 82.4709 26.7642 82.4709 26.3165L83.1783 26.3896H79.7284V23.4996H86.4223V25.5722C86.4223 26.9345 86.1299 28.0997 85.545 29.068C84.9646 30.0313 84.1642 30.7708 83.1414 31.2866C82.1238 31.7975 80.9571 32.0528 79.6397 32.0528C78.1703 32.0528 76.8802 31.7439 75.7688 31.126C74.6582 30.5081 73.7909 29.6275 73.1667 28.4841C72.5475 27.3407 72.2378 25.9809 72.2378 24.4045C72.2378 23.1687 72.4271 22.074 72.8054 21.1204C73.1889 20.1668 73.7197 19.3616 74.3976 18.7047C75.0762 18.0429 75.8604 17.5443 76.7495 17.2086C77.6393 16.8681 78.5926 16.6978 79.6102 16.6978C80.5045 16.6978 81.3352 16.8243 82.1024 17.0773C82.8734 17.3253 83.5542 17.6806 84.1442 18.1428C84.7387 18.6002 85.2179 19.1426 85.5819 19.7702C85.9453 20.3979 86.1668 21.0864 86.2451 21.8355H82.1024Z" fill="#262626"/>
    <path d="M88.3335 31.8488V16.9023H92.4326V22.7407H97.8586V16.9023H101.958V31.8488H97.8586V26.0103H92.4326V31.8488H88.3335Z" fill="#262626"/>
    <path d="M103.491 20.1718V16.9023H116.614V20.1718H112.073V31.8488H108.033V20.1718H103.491Z" fill="#262626"/>
    <path d="M118.157 31.8488V16.9023H122.256V22.7407H127.682V16.9023H131.781V31.8488H127.682V26.0103H122.256V31.8488H118.157Z" fill="#262626"/>
    <path d="M148.354 24.3753C148.354 26.0392 148.027 27.4429 147.374 28.5863C146.719 29.7247 145.837 30.5884 144.726 31.1771C143.616 31.761 142.378 32.0528 141.011 32.0528C139.635 32.0528 138.392 31.7586 137.281 31.1698C136.174 30.5762 135.294 29.7103 134.641 28.5717C133.993 27.4284 133.669 26.0296 133.669 24.3753C133.669 22.7114 133.993 21.3101 134.641 20.1716C135.294 19.0282 136.174 18.1646 137.281 17.5808C138.392 16.9921 139.635 16.6978 141.011 16.6978C142.378 16.6978 143.616 16.9921 144.726 17.5808C145.837 18.1646 146.719 19.0282 147.374 20.1716C148.027 21.3101 148.354 22.7114 148.354 24.3753ZM144.137 24.3753C144.137 23.4801 144.017 22.726 143.775 22.1129C143.54 21.4949 143.189 21.0279 142.721 20.7116C142.26 20.3906 141.69 20.23 141.011 20.23C140.333 20.23 139.76 20.3906 139.294 20.7116C138.831 21.0279 138.48 21.4949 138.238 22.1129C138.004 22.726 137.885 23.4801 137.885 24.3753C137.885 25.2705 138.004 26.0271 138.238 26.645C138.48 27.2581 138.831 27.7251 139.294 28.0462C139.76 28.3624 140.333 28.5206 141.011 28.5206C141.69 28.5206 142.26 28.3624 142.721 28.0462C143.189 27.7251 143.54 27.2581 143.775 26.645C144.017 26.0271 144.137 25.2705 144.137 24.3753Z" fill="#262626"/>
    <path d="M159.187 16.9023H163.285V26.4773C163.285 27.6159 163.01 28.6011 162.46 29.4331C161.914 30.2602 161.152 30.9 160.174 31.3525C159.195 31.8002 158.06 32.0239 156.767 32.0239C155.465 32.0239 154.325 31.8002 153.347 31.3525C152.369 30.9 151.607 30.2602 151.062 29.4331C150.521 28.6011 150.251 27.6159 150.251 26.4773V16.9023H154.351V26.1271C154.351 26.5893 154.453 27.0028 154.659 27.3677C154.865 27.7278 155.151 28.0099 155.514 28.2143C155.883 28.4186 156.301 28.5208 156.767 28.5208C157.24 28.5208 157.658 28.4186 158.021 28.2143C158.385 28.0099 158.67 27.7278 158.876 27.3677C159.082 27.0028 159.187 26.5893 159.187 26.1271V16.9023Z" fill="#262626"/>
    <path d="M173.372 21.5729C173.334 21.0864 173.149 20.7068 172.82 20.4344C172.495 20.1619 172.001 20.0257 171.338 20.0257C170.914 20.0257 170.568 20.0768 170.299 20.1789C170.032 20.2763 169.836 20.4101 169.708 20.5803C169.581 20.7506 169.514 20.9452 169.509 21.1642C169.499 21.3442 169.531 21.5071 169.605 21.6532C169.683 21.7942 169.807 21.9232 169.974 22.0399C170.141 22.1518 170.354 22.254 170.615 22.3464C170.876 22.4389 171.186 22.5216 171.544 22.5945L172.783 22.8574C173.619 23.0325 174.333 23.2635 174.928 23.5506C175.522 23.8377 176.009 24.1759 176.388 24.5651C176.767 24.9494 177.044 25.3825 177.221 25.8642C177.402 26.3459 177.496 26.8713 177.501 27.4404C177.496 28.4233 177.248 29.2553 176.756 29.9364C176.264 30.6176 175.562 31.1357 174.648 31.4909C173.738 31.8461 172.645 32.0237 171.368 32.0237C170.054 32.0237 168.91 31.8315 167.932 31.4472C166.959 31.0627 166.202 30.4717 165.661 29.6738C165.125 28.871 164.855 27.8443 164.85 26.5939H168.743C168.767 27.0513 168.883 27.4355 169.089 27.7471C169.295 28.0584 169.586 28.2944 169.958 28.4549C170.337 28.6155 170.787 28.6958 171.308 28.6958C171.745 28.6958 172.112 28.6422 172.407 28.5352C172.701 28.4282 172.924 28.2797 173.077 28.09C173.229 27.9003 173.308 27.6837 173.314 27.4404C173.308 27.2118 173.232 27.0124 173.085 26.8421C172.943 26.667 172.707 26.5113 172.377 26.375C172.047 26.2339 171.603 26.1026 171.043 25.9809L169.539 25.6598C168.201 25.3728 167.148 24.8935 166.376 24.2221C165.609 23.5457 165.229 22.6237 165.233 21.456C165.229 20.5073 165.485 19.6778 165.999 18.9673C166.521 18.2522 167.241 17.6951 168.16 17.2961C169.084 16.8972 170.143 16.6978 171.338 16.6978C172.556 16.6978 173.611 16.8997 174.5 17.3035C175.39 17.7073 176.075 18.2766 176.558 19.0112C177.044 19.741 177.289 20.5949 177.295 21.5729H173.372Z" fill="#262626"/>
    <path d="M179.061 31.8488V16.9023H189.941V20.1718H183.16V22.7407H189.381V26.0103H183.16V28.5792H189.912V31.8488H179.061Z" fill="#262626"/>
  </g>
  <defs>
    <clipPath id="clip0_3980_19564">
      <rect width="190" height="50" fill="white"/>
    </clipPath>
  </defs>
</svg>