<svg width="328" height="428" viewBox="0 0 328 428" fill="none" xmlns="http://www.w3.org/2000/svg">
<g id="Component 111">
<g clip-path="url(#clip0_3351_13691)">
<rect width="328" height="427.826" rx="28.5217" fill="#070300"/>
<path id="Try LLM inference on Destra: Faster, Decentralized" d="M34.2114 378.151H44.3081V379.178H39.8587V390.147L38.6608 390.13V379.178H34.2114V378.151ZM49.544 381.437V382.635C48.7226 382.549 48.1408 382.669 47.6274 382.909C46.669 383.234 46.1043 384.124 46.1043 385.459V390.13H44.9064V381.574H45.9332L46.1043 383.405H46.2241C46.7204 381.779 48.0381 381.437 49.544 381.437ZM54.5446 390.13H53.6719L50.6771 381.574H51.9263L54.596 389.086H54.8698L57.471 381.574H58.7031L55.8281 390.13C54.8356 393.142 54.0141 394.409 51.6696 394.409H50.8311V393.211H51.6525C53.244 393.211 53.7232 392.287 54.5446 390.13ZM64.192 378.151L65.3899 378.134V389.104H71.9784V390.13H64.192V378.151ZM74.0353 378.151L75.2332 378.134V389.104H81.8218V390.13H74.0353V378.151ZM90.4843 387.392H88.9955L85.2819 380.342C85.1279 380.017 85.0424 379.537 84.9739 379.264L84.8712 379.315C84.9568 379.555 85.0766 380.188 85.0766 380.513V390.13H83.8787V378.151H85.5215L89.7313 386.109L93.9411 378.151H95.584V390.13H94.3861V380.513C94.3861 380.188 94.5059 379.555 94.5914 379.315L94.5059 379.264C94.4203 379.537 94.3347 380.017 94.1978 380.342L90.4843 387.392ZM101.577 378.185C101.577 377.655 101.936 377.296 102.467 377.296C102.997 377.296 103.339 377.655 103.339 378.185C103.339 378.716 102.997 379.058 102.467 379.058C101.936 379.058 101.577 378.716 101.577 378.185ZM101.885 390.13V381.574H103.083V390.13H101.885ZM105.136 390.13V381.574H106.163L106.334 383.405H106.454C107.019 382.156 107.943 381.437 109.124 381.437C110.664 381.437 112.324 382.652 112.307 385.185L112.29 390.13H111.092L111.109 385.185C111.109 383.234 109.979 382.241 108.816 382.241C107.601 382.241 106.351 383.319 106.334 385.459V390.13H105.136ZM113.609 382.481V381.454H114.602C114.722 379.537 115.389 378.151 117.802 378.151H118.88V379.349C118.64 379.298 118.076 379.246 117.733 379.246C116.313 379.246 115.885 379.999 115.8 381.454H118.367C118.367 381.831 118.367 382.087 118.367 382.481H115.783V390.216H114.585V382.481H113.609ZM125.855 387.803H127.122C126.488 389.343 125.017 390.302 123.083 390.302C120.413 390.302 118.634 388.522 118.634 385.852C118.634 383.182 120.413 381.403 123.083 381.403C126.043 381.403 127.532 383.508 127.532 386.229H119.866C119.985 388.043 121.183 389.275 123.083 389.275C124.366 389.275 125.308 388.778 125.855 387.803ZM119.866 385.373H126.3C126.078 383.662 124.897 382.43 123.083 382.43C121.218 382.43 120.037 383.593 119.866 385.373ZM133.806 381.437V382.635C132.984 382.549 132.402 382.669 131.889 382.909C130.931 383.234 130.366 384.124 130.366 385.459V390.13H129.168V381.574H130.195L130.366 383.405H130.486C130.982 381.779 132.3 381.437 133.806 381.437ZM141.798 387.803H143.065C142.432 389.343 140.96 390.302 139.026 390.302C136.356 390.302 134.577 388.522 134.577 385.852C134.577 383.182 136.356 381.403 139.026 381.403C141.987 381.403 143.476 383.508 143.476 386.229H135.809C135.929 388.043 137.127 389.275 139.026 389.275C140.31 389.275 141.251 388.778 141.798 387.803ZM135.809 385.373H142.243C142.021 383.662 140.84 382.43 139.026 382.43C137.161 382.43 135.98 383.593 135.809 385.373ZM145.111 390.13V381.574H146.138L146.309 383.405H146.429C146.994 382.156 147.918 381.437 149.099 381.437C150.639 381.437 152.299 382.652 152.282 385.185L152.265 390.13H151.067L151.084 385.185C151.084 383.234 149.954 382.241 148.791 382.241C147.576 382.241 146.326 383.319 146.309 385.459V390.13H145.111ZM158.295 389.275C159.596 389.275 160.554 388.676 161.084 387.717H162.402C161.769 389.172 160.503 390.302 158.295 390.302C155.625 390.302 153.846 388.522 153.846 385.852C153.846 383.182 155.625 381.403 158.295 381.403C160.434 381.403 161.649 382.464 162.317 383.816H160.982C160.434 382.96 159.527 382.43 158.295 382.43C156.259 382.43 155.044 383.901 155.044 385.835C155.044 387.786 156.276 389.275 158.295 389.275ZM170.911 387.803H172.177C171.544 389.343 170.072 390.302 168.138 390.302C165.469 390.302 163.689 388.522 163.689 385.852C163.689 383.182 165.469 381.403 168.138 381.403C171.099 381.403 172.588 383.508 172.588 386.229H164.921C165.041 388.043 166.239 389.275 168.138 389.275C169.422 389.275 170.363 388.778 170.911 387.803ZM164.921 385.373H171.356C171.133 383.662 169.952 382.43 168.138 382.43C166.273 382.43 165.092 383.593 164.921 385.373ZM182.527 390.302C179.858 390.302 178.078 388.522 178.078 385.852C178.078 383.182 179.858 381.403 182.527 381.403C185.197 381.403 186.977 383.182 186.977 385.852C186.977 388.522 185.197 390.302 182.527 390.302ZM182.527 389.275C184.598 389.275 185.779 387.803 185.779 385.852C185.779 383.901 184.598 382.43 182.527 382.43C180.457 382.43 179.276 383.901 179.276 385.852C179.276 387.803 180.457 389.275 182.527 389.275ZM188.529 390.13V381.574H189.556L189.727 383.405H189.847C190.411 382.156 191.335 381.437 192.516 381.437C194.056 381.437 195.716 382.652 195.699 385.185L195.682 390.13H194.484L194.501 385.185C194.501 383.234 193.372 382.241 192.208 382.241C190.993 382.241 189.744 383.319 189.727 385.459V390.13H188.529ZM201.715 378.151H205.24C208.406 378.151 210.494 380.188 210.494 384.124C210.494 388.025 208.406 390.13 205.24 390.13H201.715V378.151ZM202.913 379.349V388.932H205.24C207.79 388.932 209.296 387.461 209.296 384.124C209.296 380.752 207.79 379.349 205.24 379.349H202.913ZM218.657 387.803H219.923C219.29 389.343 217.818 390.302 215.884 390.302C213.215 390.302 211.435 388.522 211.435 385.852C211.435 383.182 213.215 381.403 215.884 381.403C218.845 381.403 220.334 383.508 220.334 386.229H212.667C212.787 388.043 213.985 389.275 215.884 389.275C217.168 389.275 218.109 388.778 218.657 387.803ZM212.667 385.373H219.102C218.879 383.662 217.698 382.43 215.884 382.43C214.019 382.43 212.838 383.593 212.667 385.373ZM227.818 388.025C227.818 385.989 222.034 386.52 222.034 383.696C222.034 382.19 223.66 381.403 225.303 381.403C226.86 381.403 228.434 382.104 228.691 383.627H227.476C227.253 382.703 226.227 382.258 225.251 382.258C224.224 382.258 223.232 382.755 223.232 383.679C223.232 385.732 229.016 385.082 229.016 387.889C229.016 389.446 227.202 390.302 225.405 390.302C223.762 390.302 222.12 389.583 221.88 388.043H223.095C223.317 389.018 224.43 389.446 225.508 389.446C226.689 389.446 227.818 388.932 227.818 388.025ZM232.491 382.378V387.204C232.491 388.607 233.158 389.035 234.048 389.035C234.253 389.035 234.715 388.984 234.938 388.881V390.165C234.715 390.199 234.202 390.216 233.979 390.216C232.508 390.216 231.293 389.429 231.293 387.204V382.378H229.787V382.121C231.036 381.642 231.703 380.393 232.234 378.151H232.491V381.437H234.835V382.378H232.491ZM241.297 381.437V382.635C240.476 382.549 239.894 382.669 239.38 382.909C238.422 383.234 237.857 384.124 237.857 385.459V390.13H236.659V381.574H237.686L237.857 383.405H237.977C238.473 381.779 239.791 381.437 241.297 381.437ZM243.456 384.038L242.361 383.508C242.977 382.104 244.5 381.403 245.989 381.403C247.786 381.403 249.514 382.43 249.514 384.534V390.216H248.316V388.248H248.214C247.683 389.549 246.331 390.302 245.013 390.302C242.909 390.302 241.984 389.069 241.984 387.803C241.984 386.434 243.131 384.996 245.647 384.996H248.316V384.534C248.316 383.08 247.153 382.43 246.006 382.43C244.945 382.43 243.85 382.977 243.456 384.038ZM248.316 386.468V385.852H245.664C243.97 385.852 243.182 386.828 243.182 387.769C243.182 388.659 243.833 389.514 245.441 389.514C247.084 389.514 248.316 388.282 248.316 386.468ZM250.762 382.139C250.762 381.728 251.036 381.454 251.447 381.454C251.857 381.454 252.131 381.728 252.131 382.139C252.131 382.549 251.857 382.84 251.447 382.84C251.036 382.84 250.762 382.549 250.762 382.139ZM250.762 389.6C250.762 389.189 251.036 388.915 251.447 388.915C251.857 388.915 252.131 389.189 252.131 389.6C252.131 390.011 251.857 390.302 251.447 390.302C251.036 390.302 250.762 390.011 250.762 389.6ZM258.53 390.147L257.332 390.13V378.151H265.119V379.349H258.53V383.268H264.947V384.466H258.53V390.147ZM267.271 384.038L266.176 383.508C266.792 382.104 268.315 381.403 269.803 381.403C271.6 381.403 273.329 382.43 273.329 384.534V390.216H272.131V388.248H272.028C271.498 389.549 270.146 390.302 268.828 390.302C266.723 390.302 265.799 389.069 265.799 387.803C265.799 386.434 266.946 384.996 269.461 384.996H272.131V384.534C272.131 383.08 270.967 382.43 269.821 382.43C268.76 382.43 267.664 382.977 267.271 384.038ZM272.131 386.468V385.852H269.478C267.784 385.852 266.997 386.828 266.997 387.769C266.997 388.659 267.647 389.514 269.256 389.514C270.899 389.514 272.131 388.282 272.131 386.468ZM280.812 388.025C280.812 385.989 275.028 386.52 275.028 383.696C275.028 382.19 276.653 381.403 278.296 381.403C279.854 381.403 281.428 382.104 281.685 383.627H280.47C280.247 382.703 279.22 382.258 278.245 382.258C277.218 382.258 276.226 382.755 276.226 383.679C276.226 385.732 282.01 385.082 282.01 387.889C282.01 389.446 280.196 390.302 278.399 390.302C276.756 390.302 275.113 389.583 274.874 388.043H276.089C276.311 389.018 277.423 389.446 278.502 389.446C279.682 389.446 280.812 388.932 280.812 388.025ZM285.484 382.378V387.204C285.484 388.607 286.152 389.035 287.042 389.035C287.247 389.035 287.709 388.984 287.931 388.881V390.165C287.709 390.199 287.196 390.216 286.973 390.216C285.501 390.216 284.286 389.429 284.286 387.204V382.378H282.78V382.121C284.03 381.642 284.697 380.393 285.228 378.151H285.484V381.437H287.829V382.378H285.484ZM296.267 387.803H297.533C296.9 389.343 295.429 390.302 293.495 390.302C290.825 390.302 289.045 388.522 289.045 385.852C289.045 383.182 290.825 381.403 293.495 381.403C296.455 381.403 297.944 383.508 297.944 386.229H290.277C290.397 388.043 291.595 389.275 293.495 389.275C294.778 389.275 295.719 388.778 296.267 387.803ZM290.277 385.373H296.712C296.49 383.662 295.309 382.43 293.495 382.43C291.629 382.43 290.449 383.593 290.277 385.373ZM304.218 381.437V382.635C303.396 382.549 302.814 382.669 302.301 382.909C301.343 383.234 300.778 384.124 300.778 385.459V390.13H299.58V381.574H300.607L300.778 383.405H300.898C301.394 381.779 302.712 381.437 304.218 381.437ZM305.259 389.668C305.259 389.292 305.516 389.035 305.892 389.035C306.269 389.035 306.525 389.292 306.525 389.668C306.525 390.302 305.944 390.952 305.447 391.243L305.327 391.072C305.601 390.9 305.909 390.592 306.115 390.267C306.046 390.284 305.978 390.302 305.892 390.302C305.516 390.302 305.259 390.045 305.259 389.668ZM34.8959 398.151H38.4212C41.5871 398.151 43.6749 400.188 43.6749 404.124C43.6749 408.025 41.5871 410.13 38.4212 410.13H34.8959V398.151ZM36.0938 399.349V408.932H38.4212C40.9711 408.932 42.477 407.461 42.477 404.124C42.477 400.752 40.9711 399.349 38.4212 399.349H36.0938ZM51.838 407.803H53.1043C52.4712 409.343 50.9994 410.302 49.0657 410.302C46.396 410.302 44.6163 408.522 44.6163 405.852C44.6163 403.182 46.396 401.403 49.0657 401.403C52.0262 401.403 53.515 403.508 53.515 406.229H45.8484C45.9682 408.043 47.1661 409.275 49.0657 409.275C50.3491 409.275 51.2904 408.778 51.838 407.803ZM45.8484 405.373H52.2829C52.0604 403.662 50.8796 402.43 49.0657 402.43C47.2003 402.43 46.0195 403.593 45.8484 405.373ZM59.5106 409.275C60.8112 409.275 61.7696 408.676 62.3001 407.717H63.6178C62.9846 409.172 61.7182 410.302 59.5106 410.302C56.841 410.302 55.0612 408.522 55.0612 405.852C55.0612 403.182 56.841 401.403 59.5106 401.403C61.6498 401.403 62.8648 402.464 63.5322 403.816H62.1974C61.6498 402.96 60.7428 402.43 59.5106 402.43C57.4742 402.43 56.2592 403.901 56.2592 405.835C56.2592 407.786 57.4913 409.275 59.5106 409.275ZM72.1263 407.803H73.3927C72.7595 409.343 71.2877 410.302 69.354 410.302C66.6843 410.302 64.9046 408.522 64.9046 405.852C64.9046 403.182 66.6843 401.403 69.354 401.403C72.3145 401.403 73.8034 403.508 73.8034 406.229H66.1367C66.2565 408.043 67.4544 409.275 69.354 409.275C70.6375 409.275 71.5787 408.778 72.1263 407.803ZM66.1367 405.373H72.5712C72.3488 403.662 71.168 402.43 69.354 402.43C67.4887 402.43 66.3079 403.593 66.1367 405.373ZM75.4391 410.13V401.574H76.4659L76.637 403.405H76.7568C77.3216 402.156 78.2457 401.437 79.4265 401.437C80.9666 401.437 82.6266 402.652 82.6095 405.185L82.5924 410.13H81.3945L81.4116 405.185C81.4116 403.234 80.2821 402.241 79.1184 402.241C77.9034 402.241 76.6542 403.319 76.637 405.459V410.13H75.4391ZM86.0939 402.378V407.204C86.0939 408.607 86.7613 409.035 87.6512 409.035C87.8565 409.035 88.3186 408.984 88.541 408.881V410.165C88.3186 410.199 87.8052 410.216 87.5827 410.216C86.111 410.216 84.896 409.429 84.896 407.204V402.378H83.39V402.121C84.6393 401.642 85.3067 400.393 85.8372 398.151H86.0939V401.437H88.4384V402.378H86.0939ZM94.9003 401.437V402.635C94.0788 402.549 93.497 402.669 92.9836 402.909C92.0253 403.234 91.4606 404.124 91.4606 405.459V410.13H90.2626V401.574H91.2894L91.4606 403.405H91.5803C92.0766 401.779 93.3943 401.437 94.9003 401.437ZM97.0595 404.038L95.9642 403.508C96.5803 402.104 98.1034 401.403 99.5922 401.403C101.389 401.403 103.117 402.43 103.117 404.534V410.216H101.92V408.248H101.817C101.286 409.549 99.9345 410.302 98.6167 410.302C96.5118 410.302 95.5877 409.069 95.5877 407.803C95.5877 406.434 96.7343 404.996 99.2499 404.996H101.92V404.534C101.92 403.08 100.756 402.43 99.6093 402.43C98.5483 402.43 97.4531 402.977 97.0595 404.038ZM101.92 406.468V405.852H99.267C97.5729 405.852 96.7857 406.828 96.7857 407.769C96.7857 408.659 97.4359 409.514 99.0446 409.514C100.687 409.514 101.92 408.282 101.92 406.468ZM104.919 410.13V397.296H106.117V410.13H104.919ZM107.927 398.185C107.927 397.655 108.287 397.296 108.817 397.296C109.348 397.296 109.69 397.655 109.69 398.185C109.69 398.716 109.348 399.058 108.817 399.058C108.287 399.058 107.927 398.716 107.927 398.185ZM108.235 410.13V401.574H109.433V410.13H108.235ZM111.87 402.601V401.574H118.664L118.646 402.96L113.068 408.659V408.932H118.766V410.13H111.219V408.984L117.192 402.909V402.601H111.87ZM127.092 407.803H128.358C127.725 409.343 126.253 410.302 124.32 410.302C121.65 410.302 119.87 408.522 119.87 405.852C119.87 403.182 121.65 401.403 124.32 401.403C127.28 401.403 128.769 403.508 128.769 406.229H121.102C121.222 408.043 122.42 409.275 124.32 409.275C125.603 409.275 126.544 408.778 127.092 407.803ZM121.102 405.373H127.537C127.314 403.662 126.134 402.43 124.32 402.43C122.454 402.43 121.273 403.593 121.102 405.373ZM137.776 410.13V408.248H137.657C137.143 409.48 135.911 410.302 134.388 410.302C132.112 410.302 130.315 408.539 130.315 405.852C130.315 403.165 132.112 401.403 134.439 401.403C135.98 401.403 137.143 402.156 137.657 403.405H137.776V397.296H138.974V410.13H137.776ZM137.776 406.468V405.39C137.776 403.713 136.613 402.207 134.713 402.207C132.66 402.207 131.513 403.901 131.513 405.852C131.513 407.803 132.728 409.446 134.713 409.446C136.253 409.446 137.776 408.385 137.776 406.468Z" fill="#D4D4D4"/>
<path id="Vector" opacity="0.4" d="M0.356519 0L0.356537 427.826M65.9565 0L65.9565 427.826M131.557 0L131.557 427.826M197.156 0L197.157 427.826M262.756 0L262.757 427.826M328.356 0L328.357 427.826M328 0.356522H1.87009e-05M328 61.4745H1.60293e-05M328 122.593H1.33578e-05M328 183.711H1.06862e-05M328 244.829H8.01466e-06M328 305.947H5.34311e-06M328 367.065H2.67155e-06M328 428.183H0" stroke="#262626" stroke-width="1.42609"/>
<path id="Vector5" opacity="0.05" d="M131.912 323.878L131.912 389.478" stroke="url(#paint0_linear_3351_13691)" stroke-width="2.13913">
                                    <animate attributeName="opacity" values="0.05;1;0.05" begin="0s" dur="8s" repeatCount="indefinite" fill="freeze" calcMode="linear" keyTimes="0;0.5;1"/>
                                    <animate attributeName="d" values="M131.912 323.878L131.912 389.478;M131.912 13.8784L131.912 79.4784;M131.912 323.878L131.912 389.478" begin="0s" dur="8s" repeatCount="indefinite" fill="freeze" calcMode="linear" keyTimes="0;0.5;1"/></path>
<path id="Vector6" opacity="0.05" d="M7.71094 183.87L73.3109 183.87" stroke="url(#paint1_linear_3351_13691)" stroke-width="2.13913">
                                    <animate attributeName="opacity" values="0.05;1;0.05" begin="0s" dur="8s" repeatCount="indefinite" fill="freeze" calcMode="linear" keyTimes="0;0.5;1"/>
                                    <animate attributeName="d" values="M7.71094 183.87L73.3109 183.87;M257.711 183.87L323.311 183.87;M7.71094 183.87L73.3109 183.87" begin="0s" dur="8s" repeatCount="indefinite" fill="freeze" calcMode="linear" keyTimes="0;0.5;1"/></path>
<path id="Vector7" opacity="0.05" d="M262.6 13.0261L262.6 67.2174" stroke="url(#paint2_linear_3351_13691)" stroke-width="2.13913">
                                    <animate attributeName="opacity" values="0.05;1;0.05" begin="0s" dur="8s" repeatCount="indefinite" fill="freeze" calcMode="linear" keyTimes="0;0.5;1"/>
                                    <animate attributeName="d" values="M262.6 13.0261L262.6 67.2174;M262.6 353.026L262.6 407.217;M262.6 13.0261L262.6 67.2174" begin="0s" dur="8s" repeatCount="indefinite" fill="freeze" calcMode="linear" keyTimes="0;0.5;1"/></path>
<path id="Vector8" opacity="0.05" d="M257.826 306.644L323.426 306.644" stroke="url(#paint3_linear_3351_13691)" stroke-width="2.13913">
                                    <animate attributeName="opacity" values="0.05;1;0.05" begin="0s" dur="8s" repeatCount="indefinite" fill="freeze" calcMode="linear" keyTimes="0;0.5;1"/>
                                    <animate attributeName="d" values="M257.826 306.644L323.426 306.644;M-12.1738 306.644L53.4262 306.644;M257.826 306.644L323.426 306.644" begin="0s" dur="8s" repeatCount="indefinite" fill="freeze" calcMode="linear" keyTimes="0;0.5;1"/></path>
<path id="Vector1" d="M131.912 63.8784L131.912 129.478" stroke="url(#paint4_linear_3351_13691)" stroke-width="2.13913">
                                    <animate attributeName="d" values="M131.912 63.8784L131.912 129.478;M131.912 283.878L131.912 349.478;M131.912 63.8784L131.912 129.478" begin="0s" dur="8s" repeatCount="indefinite" fill="freeze" calcMode="linear" keyTimes="0;0.5;1"/>
                                    <animate attributeName="opacity" values="1;0.05;1" begin="0s" dur="8s" repeatCount="indefinite" fill="freeze" calcMode="linear" keyTimes="0;0.5;1"/></path>
<path id="Vector2" d="M197.512 298.07L197.512 363.67" stroke="url(#paint5_linear_3351_13691)" stroke-width="2.13913">
                                    <animate attributeName="d" values="M197.512 298.07L197.512 363.67;M197.512 18.0696L197.512 83.6696;M197.512 298.07L197.512 363.67" begin="0s" dur="8s" repeatCount="indefinite" fill="freeze" calcMode="linear" keyTimes="0;0.5;1"/>
                                    <animate attributeName="opacity" values="1;0.05;1" begin="0s" dur="8s" repeatCount="indefinite" fill="freeze" calcMode="linear" keyTimes="0;0.5;1"/></path>
<path id="Vector3" d="M65.5996 183.026L65.5996 237.217" stroke="url(#paint6_linear_3351_13691)" stroke-width="2.13913">
                                    <animate attributeName="d" values="M65.5996 183.026L65.5996 237.217;M65.5996 3.02612L65.5996 57.2174;M65.5996 183.026L65.5996 237.217" begin="0s" dur="8s" repeatCount="indefinite" fill="freeze" calcMode="linear" keyTimes="0;0.5;1"/>
                                    <animate attributeName="opacity" values="1;0.05;1" begin="0s" dur="8s" repeatCount="indefinite" fill="freeze" calcMode="linear" keyTimes="0;0.5;1"/></path>
<path id="Vector4" d="M255.826 122.644L321.426 122.644" stroke="url(#paint7_linear_3351_13691)" stroke-width="2.13913">
                                    
                                    <animate attributeName="d" values="M255.826 122.644L321.426 122.644;M-4.17383 122.644L61.4262 122.644;M255.826 122.644L321.426 122.644" begin="0s" dur="8s" repeatCount="indefinite" fill="freeze" calcMode="linear" keyTimes="0;0.5;1"/>
                                    <animate attributeName="opacity" values="1;0.05;1" begin="0s" dur="8s" repeatCount="indefinite" fill="freeze" calcMode="linear" keyTimes="0;0.5;1"/></path>
<g id="Group 107">
<ellipse id="Ellipse 3988" cx="271.955" cy="411.435" rx="1.42609" ry="1.42609" transform="rotate(-90 271.955 411.435)" fill="#D9D9D9"/>
<ellipse id="Ellipse 3989" cx="107.598" cy="377.759" rx="1.42609" ry="1.42609" transform="rotate(-90 107.598 377.759)" fill="#D9D9D9"/>
<ellipse id="Ellipse 3991" cx="30.7269" cy="276.729" rx="1.42609" ry="1.42609" transform="rotate(-90 30.7269 276.729)" fill="#D9D9D9"/>
<ellipse id="Ellipse 3985" cx="78.3138" cy="29.279" rx="1.42609" ry="1.42609" transform="rotate(-90 78.3138 29.279)" fill="#D9D9D9">
                                    <animate attributeName="cx" values="78.3138;78.3148;78.3138" begin="0s" dur="8s" repeatCount="indefinite" fill="freeze" calcMode="linear" keyTimes="0;0.5;1"/>
                                    <animateTransform attributeName="transform" type="rotate" values="-90 78.3138 29.279;-90 78.3148 29.279;-90 78.3138 29.279" begin="0s" dur="8s" repeatCount="indefinite" fill="freeze" calcMode="linear" keyTimes="0;0.5;1"/></ellipse>
<ellipse id="Ellipse 3987" cx="180.807" cy="400.088" rx="1.42609" ry="1.42609" transform="rotate(-90 180.807 400.088)" fill="#D9D9D9"/>
<ellipse id="Ellipse 3979" cx="269.758" cy="58.9289" rx="1.42609" ry="1.42609" transform="rotate(-90 269.758 58.9289)" fill="#D9D9D9"/>
<ellipse id="Ellipse 3981" cx="102.473" cy="339.033" rx="1.42609" ry="1.42609" transform="rotate(-90 102.473 339.033)" fill="#D9D9D9"/>
<ellipse id="Ellipse 3993" cx="57.0823" cy="327.319" rx="1.42609" ry="1.42609" transform="rotate(-90 57.0823 327.319)" fill="#D9D9D9"/>
<ellipse id="Ellipse 3994" cx="66.5999" cy="393.94" rx="1.42609" ry="1.42609" transform="rotate(-90 66.5999 393.94)" fill="#D9D9D9"/>
<ellipse id="Ellipse 3995" cx="144.57" cy="350.014" rx="1.42609" ry="1.42609" transform="rotate(-90 144.57 350.014)" fill="#D9D9D9">
                                    <animate attributeName="cx" values="144.57;144.571;144.57" begin="0s" dur="8s" repeatCount="indefinite" fill="freeze" calcMode="linear" keyTimes="0;0.5;1"/>
                                    <animateTransform attributeName="transform" type="rotate" values="-90 144.57 350.014;-90 144.571 350.014;-90 144.57 350.014" begin="0s" dur="8s" repeatCount="indefinite" fill="freeze" calcMode="linear" keyTimes="0;0.5;1"/></ellipse>
<ellipse id="Ellipse 3997" opacity="0.5" cx="252.553" cy="158.138" rx="1.42609" ry="1.42609" transform="rotate(-90 252.553 158.138)" fill="#D9D9D9"/>
<ellipse id="Ellipse 4000" opacity="0.5" cx="183.004" cy="222.197" rx="1.42609" ry="1.42609" transform="rotate(-90 183.004 222.197)" fill="#D9D9D9"/>
<ellipse id="Ellipse 4001" opacity="0.5" cx="221.075" cy="201.698" rx="1.42609" ry="1.42609" transform="rotate(-90 221.075 201.698)" fill="#D9D9D9"/>
<ellipse id="Ellipse 4002" opacity="0.5" cx="173.487" cy="132.515" rx="1.42609" ry="1.42609" transform="rotate(-90 173.487 132.515)" fill="#D9D9D9"/>
<ellipse id="Ellipse 4004" opacity="0.5" cx="18.6487" cy="223.219" rx="1.42609" ry="1.42609" transform="rotate(-90 18.6487 223.219)" fill="#D9D9D9"/>
<ellipse id="Ellipse 4007" opacity="0.5" cx="310.389" cy="206.747" rx="1.42609" ry="1.42609" transform="rotate(-90 310.389 206.747)" fill="#D9D9D9"/>
<ellipse id="Ellipse 4008" opacity="0.5" cx="70.9915" cy="231.639" rx="1.42609" ry="1.42609" transform="rotate(-90 70.9915 231.639)" fill="#D9D9D9">
                                    <animate attributeName="cx" values="70.9915;70.9925;70.9915" begin="0s" dur="8s" repeatCount="indefinite" fill="freeze" calcMode="linear" keyTimes="0;0.5;1"/>
                                    <animateTransform attributeName="transform" type="rotate" values="-90 70.9915 231.639;-90 70.9925 231.639;-90 70.9915 231.639" begin="0s" dur="8s" repeatCount="indefinite" fill="freeze" calcMode="linear" keyTimes="0;0.5;1"/></ellipse>
</g>
<g id="Group 129">
<g id="Ellipse 1" opacity="0.3" filter="url(#filter0_f_3351_13691)">
<ellipse cx="43.7551" cy="70.739" rx="155.8" ry="155.8" fill="url(#paint8_radial_3351_13691)"/>
</g>
<g id="Vector 2" opacity="0.8" filter="url(#filter1_f_3351_13691)">
<path d="M-110.814 -19.0719L-67.1922 -68.192L-33.8345 -68.192L105.461 183.273L97.0301 183.273L-110.814 -19.0719Z" fill="url(#paint9_linear_3351_13691)"/>
</g>
<g id="Vector 3" opacity="0.33" filter="url(#filter2_f_3351_13691)">
<path d="M-91.722 42.217L-19.3481 -18.0351L37.6954 174.843L27.3562 200.513L-91.722 42.217Z" fill="url(#paint10_linear_3351_13691)"/>
</g>
<g id="Vector 4" opacity="0.3" filter="url(#filter3_f_3351_13691)">
<path d="M-19.337 -95.5717L-90.806 -34.249L89.8711 54.1351L116.905 48.2177L-19.337 -95.5717Z" fill="url(#paint11_linear_3351_13691)"/>
</g>
</g>
</g>

                                    </g>
<defs>
<filter id="filter0_f_3351_13691" x="-197.61" y="-170.626" width="482.73" height="482.731" filterUnits="userSpaceOnUse" color-interpolation-filters="sRGB">
<feFlood flood-opacity="0" result="BackgroundImageFix"/>
<feBlend mode="normal" in="SourceGraphic" in2="BackgroundImageFix" result="shape"/>
<feGaussianBlur stdDeviation="42.7826" result="effect1_foregroundBlur_3351_13691">
                                    </feGaussianBlur>

                                    </filter>
<filter id="filter1_f_3351_13691" x="-167.857" y="-125.235" width="330.361" height="365.552" filterUnits="userSpaceOnUse" color-interpolation-filters="sRGB">
<feFlood flood-opacity="0" result="BackgroundImageFix"/>
<feBlend mode="normal" in="SourceGraphic" in2="BackgroundImageFix" result="shape"/>
<feGaussianBlur stdDeviation="28.5217" result="effect1_foregroundBlur_3351_13691">
                                    </feGaussianBlur>

                                    </filter>
<filter id="filter2_f_3351_13691" x="-141.635" y="-67.9482" width="229.243" height="318.374" filterUnits="userSpaceOnUse" color-interpolation-filters="sRGB">
<feFlood flood-opacity="0" result="BackgroundImageFix"/>
<feBlend mode="normal" in="SourceGraphic" in2="BackgroundImageFix" result="shape"/>
<feGaussianBlur stdDeviation="24.9565" result="effect1_foregroundBlur_3351_13691">
                                    </feGaussianBlur>

                                    </filter>
<filter id="filter3_f_3351_13691" x="-119.327" y="-124.094" width="264.753" height="206.75" filterUnits="userSpaceOnUse" color-interpolation-filters="sRGB">
<feFlood flood-opacity="0" result="BackgroundImageFix"/>
<feBlend mode="normal" in="SourceGraphic" in2="BackgroundImageFix" result="shape"/>
<feGaussianBlur stdDeviation="14.2609" result="effect1_foregroundBlur_3351_13691">
                                    </feGaussianBlur>

                                    </filter>
<linearGradient id="paint0_linear_3351_13691" x1="131.412" y1="323.878" x2="131.412" y2="389.478" gradientUnits="userSpaceOnUse">
<stop stop-color="#992222" stop-opacity="0.3"/>
<stop offset="0.47" stop-color="#FF3838"/>
<stop offset="1" stop-color="#992222" stop-opacity="0.3"/>

                                    
                                    <animate attributeName="y1" values="323.878;13.8784;323.878" begin="0s" dur="8s" repeatCount="indefinite" fill="freeze" calcMode="linear" keyTimes="0;0.5;1"/>
                                    <animate attributeName="y2" values="389.478;79.4784;389.478" begin="0s" dur="8s" repeatCount="indefinite" fill="freeze" calcMode="linear" keyTimes="0;0.5;1"/></linearGradient>
<linearGradient id="paint1_linear_3351_13691" x1="7.71094" y1="184.37" x2="73.3109" y2="184.37" gradientUnits="userSpaceOnUse">
<stop stop-color="#992222" stop-opacity="0.3"/>
<stop offset="0.47" stop-color="#FF3838"/>
<stop offset="1" stop-color="#992222" stop-opacity="0.3"/>

                                    
                                    <animate attributeName="x1" values="7.71094;257.711;7.71094" begin="0s" dur="8s" repeatCount="indefinite" fill="freeze" calcMode="linear" keyTimes="0;0.5;1"/>
                                    <animate attributeName="x2" values="73.3109;323.311;73.3109" begin="0s" dur="8s" repeatCount="indefinite" fill="freeze" calcMode="linear" keyTimes="0;0.5;1"/></linearGradient>
<linearGradient id="paint2_linear_3351_13691" x1="262.1" y1="13.0261" x2="262.1" y2="67.2174" gradientUnits="userSpaceOnUse">
<stop stop-color="#992222" stop-opacity="0.3"/>
<stop offset="0.47" stop-color="#FF3838"/>
<stop offset="1" stop-color="#992222" stop-opacity="0.3"/>

                                    
                                    <animate attributeName="y1" values="13.0261;353.026;13.0261" begin="0s" dur="8s" repeatCount="indefinite" fill="freeze" calcMode="linear" keyTimes="0;0.5;1"/>
                                    <animate attributeName="y2" values="67.2174;407.217;67.2174" begin="0s" dur="8s" repeatCount="indefinite" fill="freeze" calcMode="linear" keyTimes="0;0.5;1"/></linearGradient>
<linearGradient id="paint3_linear_3351_13691" x1="257.826" y1="307.144" x2="323.426" y2="307.144" gradientUnits="userSpaceOnUse">
<stop stop-color="#992222" stop-opacity="0.3"/>
<stop offset="0.47" stop-color="#FF3838"/>
<stop offset="1" stop-color="#992222" stop-opacity="0.3"/>

                                    
                                    <animate attributeName="x1" values="257.826;-12.1738;257.826" begin="0s" dur="8s" repeatCount="indefinite" fill="freeze" calcMode="linear" keyTimes="0;0.5;1"/>
                                    <animate attributeName="x2" values="323.426;53.4262;323.426" begin="0s" dur="8s" repeatCount="indefinite" fill="freeze" calcMode="linear" keyTimes="0;0.5;1"/></linearGradient>
<linearGradient id="paint4_linear_3351_13691" x1="131.412" y1="63.8784" x2="131.412" y2="129.478" gradientUnits="userSpaceOnUse">
<stop stop-color="#992222" stop-opacity="0.3"/>
<stop offset="0.47" stop-color="#FF3838"/>
<stop offset="1" stop-color="#992222" stop-opacity="0.3"/>

                                    
                                    <animate attributeName="y1" values="63.8784;283.878;63.8784" begin="0s" dur="8s" repeatCount="indefinite" fill="freeze" calcMode="linear" keyTimes="0;0.5;1"/>
                                    <animate attributeName="y2" values="129.478;349.478;129.478" begin="0s" dur="8s" repeatCount="indefinite" fill="freeze" calcMode="linear" keyTimes="0;0.5;1"/></linearGradient>
<linearGradient id="paint5_linear_3351_13691" x1="197.012" y1="298.07" x2="197.012" y2="363.67" gradientUnits="userSpaceOnUse">
<stop stop-color="#992222" stop-opacity="0.3"/>
<stop offset="0.47" stop-color="#FF3838"/>
<stop offset="1" stop-color="#992222" stop-opacity="0.3"/>

                                    
                                    <animate attributeName="y1" values="298.07;18.0696;298.07" begin="0s" dur="8s" repeatCount="indefinite" fill="freeze" calcMode="linear" keyTimes="0;0.5;1"/>
                                    <animate attributeName="y2" values="363.67;83.6696;363.67" begin="0s" dur="8s" repeatCount="indefinite" fill="freeze" calcMode="linear" keyTimes="0;0.5;1"/></linearGradient>
<linearGradient id="paint6_linear_3351_13691" x1="65.0996" y1="183.026" x2="65.0996" y2="237.217" gradientUnits="userSpaceOnUse">
<stop stop-color="#992222" stop-opacity="0.3"/>
<stop offset="0.47" stop-color="#FF3838"/>
<stop offset="1" stop-color="#992222" stop-opacity="0.3"/>

                                    
                                    <animate attributeName="y1" values="183.026;3.02612;183.026" begin="0s" dur="8s" repeatCount="indefinite" fill="freeze" calcMode="linear" keyTimes="0;0.5;1"/>
                                    <animate attributeName="y2" values="237.217;57.2174;237.217" begin="0s" dur="8s" repeatCount="indefinite" fill="freeze" calcMode="linear" keyTimes="0;0.5;1"/></linearGradient>
<linearGradient id="paint7_linear_3351_13691" x1="255.826" y1="123.144" x2="321.426" y2="123.144" gradientUnits="userSpaceOnUse">
<stop stop-color="#992222" stop-opacity="0.3"/>
<stop offset="0.47" stop-color="#FF3838"/>
<stop offset="1" stop-color="#992222" stop-opacity="0.3"/>

                                    
                                    <animate attributeName="x1" values="255.826;-4.17383;255.826" begin="0s" dur="8s" repeatCount="indefinite" fill="freeze" calcMode="linear" keyTimes="0;0.5;1"/>
                                    <animate attributeName="x2" values="321.426;61.4262;321.426" begin="0s" dur="8s" repeatCount="indefinite" fill="freeze" calcMode="linear" keyTimes="0;0.5;1"/></linearGradient>
<radialGradient id="paint8_radial_3351_13691" cx="0" cy="0" r="1" gradientUnits="userSpaceOnUse" gradientTransform="translate(43.7551 70.739) rotate(90) scale(155.8)">
<stop stop-color="#FF3838"/>
<stop offset="1" stop-color="#FF3838" stop-opacity="0"/>

                                    </radialGradient>
<linearGradient id="paint9_linear_3351_13691" x1="-73.7904" y1="-41.7991" x2="47.6396" y2="143.863" gradientUnits="userSpaceOnUse">
<stop stop-color="#FA7E7E"/>
<stop offset="1" stop-color="#FF3838"/>

                                    </linearGradient>
<linearGradient id="paint10_linear_3351_13691" x1="81.4473" y1="36.5064" x2="-27.372" y2="274.281" gradientUnits="userSpaceOnUse">
<stop stop-color="#FF4141"/>
<stop offset="1" stop-color="#FF3838"/>

                                    </linearGradient>
<linearGradient id="paint11_linear_3351_13691" x1="-53.8219" y1="74.2253" x2="198.761" y2="6.54603" gradientUnits="userSpaceOnUse">
<stop stop-color="#FF4141"/>
<stop offset="1" stop-color="#FF3838"/>

                                    </linearGradient>
<clipPath id="clip0_3351_13691">
<rect width="328" height="427.826" rx="28.5217" fill="white"/>
</clipPath>
</defs>
</svg>