<svg width="644" height="263" viewBox="0 0 644 263" fill="none" xmlns="http://www.w3.org/2000/svg">
<g id="Component 23">
<g id="Group 106">
<g id="Vector">
<path fill-rule="evenodd" clip-rule="evenodd" d="M561.935 163.065V167.996C568.035 168.166 572 163.286 572 157.998C572 154.052 569.871 150.399 566.128 148.674C566.128 148.404 566.11 148.272 565.879 148.272H565.263C565.173 148.273 565.139 148.288 565.117 148.347C565.028 148.323 564.945 148.3 564.867 148.278C564.458 148.165 564.165 148.084 563.677 148H554V156.718H558.776V152.945H562.991C562.991 152.945 567.321 153.157 567.321 157.998C567.321 163.065 562.961 163.293 561.935 163.065ZM565.581 149.474L566.073 153.707C565.165 152.905 564.105 152.5 562.894 152.42L561.304 150.7V150.484L564.965 149.144C564.965 149.334 565.147 149.474 565.238 149.474H565.581ZM562.207 152.42L560.927 151.045H560.252C560.122 151.045 559.987 150.922 559.97 150.775L557.707 151.689V151.962L558.591 152.425L562.207 152.42ZM558.457 148.536H554.653L556.218 150.874H557.331C557.536 150.874 557.701 151.008 557.701 151.131L559.912 150.246L558.457 148.536ZM559.126 148.534L563.677 148.522L564.584 148.742L561.304 149.943C561.304 149.728 561.171 149.665 560.973 149.654H560.228C560.16 149.662 560.133 149.673 560.121 149.712L559.126 148.534ZM554.431 155.4V149.119L555.82 151.178V152.701L554.431 155.4ZM556.316 152.823H557.46C557.535 152.823 557.707 152.694 557.707 152.54L558.281 152.844V156.211H554.587L556.316 152.823ZM568.432 152.887L566.65 154.052L566.073 149.363L566.155 149.246C566.953 149.509 567.407 149.77 568.234 150.514L568.432 152.887Z" fill="white"/>
<path d="M557.156 157.833H555.63C555.416 157.833 555.243 158.012 555.243 158.233V159.81C555.243 160.031 555.416 160.21 555.63 160.21H557.244L558.066 161.052V163.394L557.282 164.229C557.245 164.229 557.242 164.205 557.105 164.205H554.6C554.386 164.205 554.213 164.384 554.213 164.605V167.205C554.213 167.426 554.386 167.605 554.6 167.605H557.105C557.319 167.605 557.492 167.426 557.492 167.205V164.745L558.453 163.738H560.684C560.898 163.738 561.072 163.559 561.072 163.338V161.018C561.072 160.797 560.948 160.634 560.704 160.634H558.37L557.543 159.79V158.233C557.543 158.012 557.37 157.833 557.156 157.833Z" fill="white"/>
</g>
<path id="Vector 3037" opacity="0.3" d="M119 32L200.5 113.5H453H526V190" stroke="#8D8D8D"/>
<path id="Vector 3041" opacity="0.3" d="M202.5 32H286H453V114" stroke="#8D8D8D"/>
<path id="Vector 3040" opacity="0.3" d="M592 72.75H453H389.5" stroke="#8D8D8D"/>
<path id="Vector 3039" opacity="0.3" d="M286 32V166.5H202.5V217.5" stroke="#8D8D8D"/>
<path id="Vector 3038" opacity="0.3" d="M453 220H286H202.5H119V126H56" stroke="#8D8D8D"/>
<g id="Group 68">
<ellipse id="Ellipse 3971" cx="286" cy="114" rx="3" ry="3" fill="#676767">
                                    <animate attributeName="fill" values="#676767;#FF3838;#D4D4D4;#D4D4D4" begin="0s" dur="8s" repeatCount="indefinite" fill="freeze" calcMode="linear" keyTimes="0;0.333;0.667;1"/></ellipse>
<ellipse id="Ellipse 3972" cx="286" cy="114" rx="4.5" ry="4.5" stroke="#8D8D8D"/>
</g>
<g id="Group 75">
<ellipse id="Ellipse 3971_2" cx="453" cy="158" rx="3" ry="3" fill="#FF3838">
                                    <animate attributeName="fill" values="#FF3838;#D4D4D4;#D4D4D4;#D4D4D4" begin="0s" dur="8s" repeatCount="indefinite" fill="freeze" calcMode="linear" keyTimes="0;0.333;0.667;1"/></ellipse>
<ellipse id="Ellipse 3972_2" cx="453" cy="158" rx="4.5" ry="4.5" stroke="#8D8D8D"/>
</g>
<g id="Group 69">
<ellipse id="Ellipse 3971_3" cx="177" cy="90" rx="3" ry="3" fill="#676767">
                                    <animate attributeName="fill" values="#676767;#D4D4D4;#FF3838;#D4D4D4" begin="0s" dur="8s" repeatCount="indefinite" fill="freeze" calcMode="linear" keyTimes="0;0.333;0.667;1"/></ellipse>
<ellipse id="Ellipse 3972_3" cx="177" cy="90" rx="4.5" ry="4.5" stroke="#8D8D8D"/>
</g>
<g id="Group 70">
<ellipse id="Ellipse 3971_4" cx="119" cy="148" rx="3" ry="3" fill="#676767">
                                    <animate attributeName="fill" values="#676767;#FF3838;#D4D4D4;#FF3838" begin="0s" dur="8s" repeatCount="indefinite" fill="freeze" calcMode="linear" keyTimes="0;0.333;0.667;1"/></ellipse>
<ellipse id="Ellipse 3972_4" cx="119" cy="148" rx="4.5" ry="4.5" stroke="#8D8D8D"/>
</g>
<g id="Group 71" opacity="0.4">
<ellipse id="Ellipse 3971_5" cx="286" cy="167" rx="3" ry="3" fill="#D4D4D4"/>
<ellipse id="Ellipse 3972_5" cx="286" cy="167" rx="4.5" ry="4.5" stroke="#8D8D8D"/>
</g>
<g id="Group 72" opacity="0.2">
<ellipse id="Ellipse 3971_6" cx="202" cy="220" rx="3" ry="3" fill="#D4D4D4"/>
<ellipse id="Ellipse 3972_6" cx="202" cy="220" rx="4.5" ry="4.5" stroke="#8D8D8D"/>
</g>
<g id="Group 73" opacity="0.2">
<ellipse id="Ellipse 3971_7" cx="453" cy="73" rx="3" ry="3" fill="#D4D4D4">
                                    <animate attributeName="fill" values="#D4D4D4;#FF3838;#D4D4D4;#FF3838" begin="0s" dur="8s" repeatCount="indefinite" fill="freeze" calcMode="linear" keyTimes="0;0.333;0.667;1"/></ellipse>
<ellipse id="Ellipse 3972_7" cx="453" cy="73" rx="4.5" ry="4.5" stroke="#8D8D8D"/>

                                    <animate attributeName="opacity" values="0.2;1;0.3;1" begin="0s" dur="8s" repeatCount="indefinite" fill="freeze" calcMode="linear" keyTimes="0;0.333;0.667;1"/></g>
<g id="Group 74" opacity="0.2">
<ellipse id="Ellipse 3971_8" cx="453" cy="114" rx="3" ry="3" fill="#D4D4D4"/>
<ellipse id="Ellipse 3972_8" cx="453" cy="114" rx="4.5" ry="4.5" stroke="#8D8D8D"/>
</g>
<g id="Group 76" opacity="0.2">
<ellipse id="Ellipse 3971_9" cx="526" cy="158" rx="3" ry="3" fill="#D4D4D4"/>
<ellipse id="Ellipse 3972_9" cx="526" cy="158" rx="4.5" ry="4.5" stroke="#8D8D8D"/>
</g>
<g id="Group 77" opacity="0.2">
<ellipse id="Ellipse 3971_10" cx="286" cy="32" rx="3" ry="3" fill="#D4D4D4"/>
<ellipse id="Ellipse 3972_10" cx="286" cy="32" rx="4.5" ry="4.5" stroke="#8D8D8D"/>
</g>
<g id="Group 78" opacity="0.2">
<ellipse id="Ellipse 3971_11" cx="119" cy="33" rx="3" ry="3" fill="#D4D4D4"/>
<ellipse id="Ellipse 3972_11" cx="119" cy="33" rx="4.5" ry="4.5" stroke="#8D8D8D"/>
</g>
<g id="Group 79" opacity="0.2">
<ellipse id="Ellipse 3971_12" cx="588" cy="73" rx="3" ry="3" fill="#D4D4D4"/>
<ellipse id="Ellipse 3972_12" cx="588" cy="73" rx="4.5" ry="4.5" stroke="#8D8D8D"/>
</g>
<path id="Vector 3036" d="M93 210V174L188 79H356.5V158.5H552.5" stroke="#DADADA" stroke-opacity="0.2" stroke-width="2"/>
<g id="Frame 1618873604">
<rect x="458.5" y="189.5" width="101" height="35" rx="17.5" stroke="#8D8D8D"/>
<g id="Frame 1618873603" filter="url(#filter0_ii_2797_7342)">
<rect x="462" y="193" width="94" height="28" rx="12" fill="#1A1A1A" fill-opacity="0.5"/>
<path id="40% Faster" d="M484.269 206.832H485.534V207.932H484.269V210L483.158 210.011V207.932H479.572V207.129L483.268 202.333H484.269V206.832ZM483.158 206.832V204.225L481.156 206.832H483.158ZM489.576 202.355C491.556 202.355 492.447 203.895 492.447 206.183C492.447 208.119 491.622 210.022 489.576 210.022C487.629 210.022 486.694 208.383 486.694 206.271C486.694 203.851 487.53 202.355 489.576 202.355ZM489.576 208.944C490.577 208.944 491.204 207.976 491.204 205.908C491.204 204.027 490.511 203.334 489.576 203.334C488.663 203.334 487.937 204.192 487.937 205.919C487.937 208.042 488.553 208.944 489.576 208.944ZM499.475 206.557C500.476 206.557 500.927 207.272 500.927 208.306C500.927 209.197 500.509 210.066 499.475 210.066C498.485 210.066 498.012 209.318 498.012 208.35C498.012 207.25 498.441 206.557 499.475 206.557ZM499.475 209.263C499.871 209.263 500.135 208.933 500.135 208.218C500.135 207.558 499.849 207.327 499.475 207.327C499.101 207.327 498.804 207.624 498.804 208.218C498.804 208.944 499.057 209.263 499.475 209.263ZM496.516 204.016C496.516 204.907 496.098 205.776 495.064 205.776C494.074 205.776 493.612 205.028 493.612 204.06C493.612 202.949 494.03 202.267 495.064 202.267C496.065 202.267 496.516 202.971 496.516 204.016ZM494.415 203.928C494.415 204.643 494.657 204.94 495.064 204.94C495.46 204.94 495.713 204.621 495.713 203.928C495.713 203.29 495.427 203.059 495.064 203.059C494.701 203.059 494.415 203.345 494.415 203.928ZM498.738 202.355L500.025 202.366L495.548 210.011H494.261L498.738 202.355ZM510.33 202.355V203.411H506.282L506.293 205.501L509.351 205.49H509.439V206.634H509.34L506.315 206.645V210.022L506.238 210.011L505.16 210.022V202.355H510.33ZM516.514 209.252L516.789 210.011H515.04L514.974 209.318C514.974 209.318 514.545 210.121 513.225 210.121C512.587 210.121 512.235 210.022 511.872 209.791C511.487 209.538 511.256 209.109 511.212 208.658C511.168 208.185 511.311 207.679 511.674 207.316C511.916 207.074 512.301 206.854 513.192 206.777C514.248 206.7 514.655 206.7 514.853 206.381C514.919 206.249 514.93 206.018 514.809 205.842C514.567 205.501 513.324 205.27 513.082 206.183L511.575 205.831C511.828 204.698 512.829 204.357 514.006 204.357C514.82 204.357 515.392 204.511 515.854 204.918C516.47 205.468 516.503 205.996 516.503 207.327L516.514 209.252ZM514.556 208.647C514.853 208.405 514.941 208.053 514.908 207.404C514.402 207.767 513.247 207.481 512.939 208.02C512.697 208.427 512.972 208.867 513.489 208.933C513.786 208.977 514.237 208.9 514.556 208.647ZM520.929 206.821C521.358 206.942 522.634 207.316 522.491 208.779C522.326 210.451 519.202 210.539 518.102 209.582C517.618 209.164 517.464 208.691 517.464 208.691L518.949 208.273C518.949 208.273 519.07 208.724 519.543 208.867C520.214 209.054 521.138 208.933 521.006 208.35C520.918 207.976 520.016 207.888 519.675 207.811C519.246 207.712 518.641 207.635 518.201 207.294C517.354 206.645 517.508 205.644 518.014 205.094C518.883 204.126 520.874 204.324 521.479 204.709C522.007 205.05 522.37 205.424 522.524 205.864L521.05 206.315C521.05 206.315 520.995 205.831 520.434 205.677C519.829 205.512 518.982 205.721 519.257 206.26C519.389 206.535 520.071 206.59 520.929 206.821ZM525.567 207.415C525.567 208.042 525.578 208.152 525.589 208.251C525.688 208.922 526.722 208.614 526.722 208.614L526.964 210.022C524.313 210.495 524.016 209.12 524.016 208.174C524.016 208.163 524.016 208.152 524.016 208.141V206.238L524.038 205.666L523.18 205.699V204.412L524.027 204.423L524.016 203.62V202.674L525.578 202.355V203.62L525.545 204.423L526.216 204.412H526.821L526.832 205.699H526.15L525.545 205.677L525.567 206.392V207.415ZM533.159 207.745L531.685 207.734H529.276C529.309 208.405 529.848 208.9 530.431 208.9C531.355 208.9 531.663 208.262 531.663 208.262L533.005 208.878C533.005 208.878 532.433 210.154 530.497 210.143C529.309 210.132 528.506 209.648 528 208.801C527.56 208.053 527.461 206.48 528.066 205.578C528.66 204.709 529.485 204.357 530.42 204.357C531.531 204.357 532.213 204.742 532.708 205.567C533.192 206.37 533.159 207.745 533.159 207.745ZM529.287 206.634H531.586C531.542 206.062 531.201 205.512 530.442 205.512C529.76 205.523 529.353 206.04 529.287 206.634ZM537.434 205.831C537.434 205.831 537.071 205.556 536.565 205.644C536.191 205.71 535.762 205.897 535.586 206.436C535.498 206.711 535.52 206.854 535.52 207.602V210H533.925V204.445H535.476V205.27C535.476 205.27 535.883 204.401 537.159 204.39C537.786 204.379 538.05 204.555 538.05 204.555L537.434 205.831Z" fill="#E5E5E5"/>
</g>
</g>
<g id="Frame 1618873606" filter="url(#filter1_d_2797_7342)">
<rect x="40" y="174" width="159" height="32" rx="12" fill="#262626" shape-rendering="crispEdges"/>
<rect x="40.5" y="174.5" width="158" height="31" rx="11.5" stroke="url(#paint0_linear_2797_7342)" stroke-opacity="0.12" shape-rendering="crispEdges"/>
<g id="Frame 1618873652">
<g id="Group 105">
<ellipse id="Ellipse 3975" opacity="0.2" cx="60" cy="190" rx="6" ry="6" fill="white"/>
<ellipse id="Ellipse 3974" cx="60" cy="190" rx="2" ry="2" fill="white"/>
</g>
<path id="Live Nodes:" d="M71.6221 191.076H75.6371V191.978H70.6321V184.322H71.6001L71.6221 191.076ZM76.8887 192.011V186.456H77.8677L77.8457 192.011H76.8887ZM77.8677 185.301H76.8887V184.344H77.8677V185.301ZM83.1845 186.456H84.1965L82.0625 192H81.1275L78.9275 186.445H79.9945L81.3035 190.031L81.6005 190.9L81.8645 190.031L83.1845 186.456ZM86.9693 186.324C88.9603 186.269 89.5543 187.809 89.5543 188.898C89.5543 189.074 89.5543 189.294 89.5323 189.448V189.459L85.5723 189.47C85.5723 189.47 85.4843 191.329 87.1343 191.329C88.2673 191.329 88.5423 190.526 88.5423 190.526L89.4773 190.779C89.4773 190.779 89.0043 192.11 87.2223 192.11C85.9793 192.11 85.2533 191.604 84.8793 190.834C84.1863 189.382 84.4063 186.401 86.9693 186.324ZM88.5313 188.766C88.5313 188.766 88.6193 187.05 87.0463 187.05C85.5723 187.05 85.5723 188.766 85.5723 188.766H88.5313ZM99.3366 184.333V184.949V187.688V188.315V191.373V191.769V192H98.6106L98.5996 191.978L94.2216 186.082L94.2546 192.011L93.3196 192V184.333H94.0456L94.0566 184.344L98.3796 190.185L98.4016 184.333H99.3366ZM102.936 186.291C104.751 186.291 105.576 187.556 105.576 189.195C105.576 190.548 104.982 192.11 102.936 192.11C100.989 192.099 100.296 190.658 100.296 189.261C100.296 187.512 101.055 186.291 102.936 186.291ZM102.936 191.34C103.904 191.34 104.564 190.625 104.564 189.074C104.564 187.655 103.805 187.039 102.903 187.039C102.023 187.039 101.308 187.798 101.308 189.085C101.308 190.68 101.957 191.34 102.936 191.34ZM110.25 184.344H111.185V192.011H110.25V191.274C110.25 191.274 109.777 192.099 108.578 192.099C107.797 192.099 106.334 191.725 106.334 189.184C106.334 186.511 107.841 186.335 108.622 186.335C109.821 186.335 110.25 187.226 110.25 187.226C110.25 187.226 110.25 184.685 110.25 184.344ZM108.787 191.307C109.337 191.307 110.206 190.9 110.206 189.206C110.206 187.567 109.381 187.083 108.787 187.061C107.819 187.017 107.247 187.743 107.247 189.118C107.247 190.614 107.852 191.307 108.787 191.307ZM114.62 186.324C116.611 186.269 117.205 187.809 117.205 188.898C117.205 189.074 117.205 189.294 117.183 189.448V189.459L113.223 189.47C113.223 189.47 113.135 191.329 114.785 191.329C115.918 191.329 116.193 190.526 116.193 190.526L117.128 190.779C117.128 190.779 116.655 192.11 114.873 192.11C113.63 192.11 112.904 191.604 112.53 190.834C111.837 189.382 112.057 186.401 114.62 186.324ZM116.182 188.766C116.182 188.766 116.27 187.05 114.697 187.05C113.223 187.05 113.223 188.766 113.223 188.766H116.182ZM122.345 189.459C122.598 189.756 122.774 190.174 122.719 190.658C122.554 192.374 119.727 192.484 118.638 191.527C118.198 191.153 118.066 190.68 118.066 190.68L119.023 190.471C119.023 190.471 119.122 191.153 120.189 191.296C120.596 191.34 121.212 191.274 121.465 191.076C121.762 190.867 121.894 190.449 121.641 190.086C121.201 189.47 119.309 189.822 118.561 189.063C117.824 188.304 117.967 187.292 118.737 186.731C119.507 186.159 121.102 186.258 121.696 186.577C122.191 186.83 122.499 187.182 122.675 187.754L121.806 188.018C121.806 188.018 121.718 187.611 121.421 187.391C120.882 186.995 119.991 187.028 119.562 187.182C118.913 187.424 118.858 188.084 119.221 188.425C119.771 188.92 121.652 188.623 122.345 189.459ZM125.104 187.391H124.059V186.291H125.104V187.391ZM125.104 192.011H124.059V190.9H125.104V192.011Z" fill="white"/>
</g>
<path id="2,432" d="M144.886 189.58C143.006 191.56 140.546 191.4 140.126 193.54H146.186L146.146 196H138.866H137.466H136.766C136.766 193.58 137.466 191.4 139.226 190.22C141.126 188.94 142.726 188.4 143.266 187.26C143.926 185.88 143.046 184.7 142.046 184.46C141.286 184.26 140.286 184.54 139.846 185.18C139.546 185.64 139.506 186.32 139.506 186.32L136.766 185.76C137.666 181.28 143.226 181 145.146 183.24C146.206 184.5 146.946 187.46 144.886 189.58ZM147.985 193.16H150.845V196.04L150.025 198.92H148.805V196.04H147.985V193.16ZM160.786 189.66H162.286V192.14H160.786V196H158.226V192.14H152.346V190.24L158.446 182.24H160.786V189.66ZM158.206 189.74V186.06L155.386 189.74H158.206ZM171.298 188.82C171.298 188.82 173.518 189.46 173.518 192.36C173.518 194.66 171.398 196.2 168.558 196.2C166.318 196.2 164.318 195.3 163.698 192.84L166.358 192.06C166.518 193.26 167.478 193.66 168.698 193.64C171.818 193.56 171.538 190 168.838 190H167.738L167.758 187.62L168.898 187.6C171.018 187.6 171.278 184.26 168.518 184.26C167.118 184.26 166.358 184.86 166.278 186.18L163.598 185.72C164.038 183.08 166.138 181.98 168.458 181.98C171.318 181.98 173.018 183.64 173.098 185.64C173.198 188.08 171.298 188.82 171.298 188.82ZM182.875 189.58C180.995 191.56 178.535 191.4 178.115 193.54H184.175L184.135 196H176.855H175.455H174.755C174.755 193.58 175.455 191.4 177.215 190.22C179.115 188.94 180.715 188.4 181.255 187.26C181.915 185.88 181.035 184.7 180.035 184.46C179.275 184.26 178.275 184.54 177.835 185.18C177.535 185.64 177.495 186.32 177.495 186.32L174.755 185.76C175.655 181.28 181.215 181 183.135 183.24C184.195 184.5 184.935 187.46 182.875 189.58Z" fill="#D4D4D4"/>
</g>
<path id="line 1" d="M97.0348 171.709L101.511 165.664" stroke="#FF3838">
                                    <animate attributeName="d" values="M97.0348 171.709L101.511 165.664;M116.896 149.99L122.451 144.919;M168.729 98.4922L187.973 79.0001;M187.398 79.4733L188.684 78.6158" begin="0s" dur="8s" repeatCount="indefinite" fill="freeze" calcMode="linear" keyTimes="0;0.333;0.667;1"/></path>
<path id="line 2" d="M56.8299 126.217L64.3488 125.999" stroke="#FF3838">
                                    <animate attributeName="d" values="M56.8299 126.217L64.3488 125.999;M82.4812 126.217L90 125.999;M118.532 126L119.527 126.001;M119 151L119 145" begin="0s" dur="8s" repeatCount="indefinite" fill="freeze" calcMode="linear" keyTimes="0;0.333;0.667;1"/></path>
<path id="line 3" d="M122.888 35.9996L128.305 41.2188" stroke="#FF3838">
                                    <animate attributeName="d" values="M122.888 35.9996L128.305 41.2188;M123.888 36.9996L129.305 42.2188;M195.335 108.39L200.752 113.609;M200.205 113.287L200.933 113.633" begin="0s" dur="8s" repeatCount="indefinite" fill="freeze" calcMode="linear" keyTimes="0;0.333;0.667;1"/></path>
<path id="line 4" d="M202.776 31.939L210.297 32.0003" stroke="#FF3838">
                                    <animate attributeName="d" values="M202.776 31.939L210.297 32.0003;M246.978 31.939L254.5 32.0003;M367.863 32.0004L407.638 32.0007;M452.528 31.9995L453.501 31.9993" begin="0s" dur="8s" repeatCount="indefinite" fill="freeze" calcMode="linear" keyTimes="0;0.333;0.667;1"/></path>
<path id="line 5" d="M389.5 72.7495L397.022 72.8108" stroke="#FF3838">
                                    <animate attributeName="d" values="M389.5 72.7495L397.022 72.8108;M449.478 72.7495L457 72.8108;M584.478 72.7495L592 72.8108;M389.5 72.7495L397.022 72.8108" begin="0s" dur="8s" repeatCount="indefinite" fill="freeze" calcMode="linear" keyTimes="0;0.333;0.667;1"/></path>
<path id="line 6" d="M286 37.319L286.108 44.8402" stroke="#FF3838">
                                    <animate attributeName="d" values="M286 37.319L286.108 44.8402;M286 110.001L286.108 117.522;M286 165.823L286 167.001;M220.239 166.403L242.079 166.51" begin="0s" dur="8s" repeatCount="indefinite" fill="freeze" calcMode="linear" keyTimes="0;0.333;0.667;1"/></path>
</g>

                                    </g>
<defs>
<filter id="filter0_ii_2797_7342" x="462" y="187" width="94" height="40" filterUnits="userSpaceOnUse" color-interpolation-filters="sRGB">
<feFlood flood-opacity="0" result="BackgroundImageFix"/>
<feBlend mode="normal" in="SourceGraphic" in2="BackgroundImageFix" result="shape"/>
<feColorMatrix in="SourceAlpha" type="matrix" values="0 0 0 0 0 0 0 0 0 0 0 0 0 0 0 0 0 0 127 0" result="hardAlpha"/>
<feOffset dy="6"/>
<feGaussianBlur stdDeviation="6"/>
<feComposite in2="hardAlpha" operator="arithmetic" k2="-1" k3="1"/>
<feColorMatrix type="matrix" values="0 0 0 0 0.25098 0 0 0 0 0.25098 0 0 0 0 0.25098 0 0 0 0.5 0"/>
<feBlend mode="normal" in2="shape" result="effect1_innerShadow_2797_7342">
                                    </feBlend>
<feColorMatrix in="SourceAlpha" type="matrix" values="0 0 0 0 0 0 0 0 0 0 0 0 0 0 0 0 0 0 127 0" result="hardAlpha"/>
<feOffset dy="-6"/>
<feGaussianBlur stdDeviation="6"/>
<feComposite in2="hardAlpha" operator="arithmetic" k2="-1" k3="1"/>
<feColorMatrix type="matrix" values="0 0 0 0 0.25098 0 0 0 0 0.25098 0 0 0 0 0.25098 0 0 0 0.5 0"/>
<feBlend mode="normal" in2="effect1_innerShadow_2797_7342" result="effect2_innerShadow_2797_7342">
                                    
                                    </feBlend>

                                    </filter>
<filter id="filter1_d_2797_7342" x="16" y="174" width="207" height="80" filterUnits="userSpaceOnUse" color-interpolation-filters="sRGB">
<feFlood flood-opacity="0" result="BackgroundImageFix"/>
<feColorMatrix in="SourceAlpha" type="matrix" values="0 0 0 0 0 0 0 0 0 0 0 0 0 0 0 0 0 0 127 0" result="hardAlpha"/>
<feOffset dy="24"/>
<feGaussianBlur stdDeviation="12"/>
<feComposite in2="hardAlpha" operator="out"/>
<feColorMatrix type="matrix" values="0 0 0 0 0 0 0 0 0 0 0 0 0 0 0 0 0 0 0.12 0"/>
<feBlend mode="normal" in2="BackgroundImageFix" result="effect1_dropShadow_2797_7342">
                                    </feBlend>
<feBlend mode="normal" in="SourceGraphic" in2="effect1_dropShadow_2797_7342" result="shape">
                                    </feBlend>

                                    </filter>
<linearGradient id="paint0_linear_2797_7342" x1="119.5" y1="174" x2="119.5" y2="206" gradientUnits="userSpaceOnUse">
<stop stop-color="white"/>
<stop offset="1" stop-color="#999999" stop-opacity="0"/>

                                    </linearGradient>
</defs>
</svg>