<svg xmlns="http://www.w3.org/2000/svg" width="24" height="24" viewBox="0 0 24 24" fill="none">
  <path d="M17.2998 13.3499C17.0375 13.3488 16.7861 13.2447 16.5998 13.0599C16.4136 12.8726 16.309 12.6191 16.309 12.3549C16.309 12.0907 16.4136 11.8373 16.5998 11.6499L18.7198 9.52992C18.9058 9.34417 19.0533 9.12359 19.154 8.8808C19.2546 8.638 19.3064 8.37775 19.3064 8.11492C19.3064 7.85209 19.2546 7.59183 19.154 7.34904C19.0533 7.10624 18.9058 6.88566 18.7198 6.69992L17.2998 5.27992C16.9174 4.91844 16.4111 4.71704 15.8848 4.71704C15.3586 4.71704 14.8523 4.91844 14.4698 5.27992L12.3498 7.39992C12.1582 7.55329 11.9167 7.63079 11.6716 7.61765C11.4265 7.60452 11.1947 7.50168 11.0205 7.3287C10.8463 7.15573 10.7418 6.92473 10.7269 6.67969C10.7121 6.43464 10.7878 6.19269 10.9398 5.99992L13.0598 3.87992C13.8224 3.15244 14.8359 2.74658 15.8898 2.74658C16.9438 2.74658 17.9572 3.15244 18.7198 3.87992L20.1298 5.28992C20.5017 5.66141 20.7968 6.10256 20.9981 6.58816C21.1994 7.07375 21.303 7.59425 21.303 8.11992C21.303 8.64558 21.1994 9.16609 20.9981 9.65168C20.7968 10.1373 20.5017 10.5784 20.1298 10.9499L17.9998 13.0599C17.8136 13.2447 17.5622 13.3488 17.2998 13.3499Z" fill="#FF3838"/>
  <path d="M8.10992 21.3001C7.58448 21.3005 7.06411 21.1974 6.57853 20.9966C6.09294 20.7959 5.65167 20.5014 5.27992 20.1301L3.86992 18.7201C3.49802 18.3486 3.20298 17.9074 3.00169 17.4218C2.80039 16.9363 2.69678 16.4157 2.69678 15.8901C2.69678 15.3644 2.80039 14.8439 3.00169 14.3583C3.20298 13.8727 3.49802 13.4316 3.86992 13.0601L5.99992 10.9401C6.1927 10.7881 6.43465 10.7123 6.67969 10.7272C6.92473 10.7421 7.15574 10.8466 7.32871 11.0208C7.50168 11.195 7.60453 11.4267 7.61766 11.6718C7.63079 11.917 7.55329 12.1584 7.39992 12.3501L5.27992 14.4701C5.09397 14.6558 4.94645 14.8764 4.8458 15.1192C4.74516 15.362 4.69335 15.6223 4.69335 15.8851C4.69335 16.1479 4.74516 16.4082 4.8458 16.651C4.94645 16.8938 5.09397 17.1143 5.27992 17.3001L6.69992 18.7201C7.08238 19.0816 7.58867 19.283 8.11492 19.283C8.64117 19.283 9.14747 19.0816 9.52992 18.7201L11.6499 16.6001C11.7372 16.4894 11.8469 16.3984 11.9717 16.3331C12.0966 16.2678 12.2339 16.2296 12.3746 16.2211C12.5153 16.2126 12.6561 16.2338 12.788 16.2836C12.9199 16.3333 13.0398 16.4103 13.1398 16.5096C13.2398 16.6089 13.3177 16.7283 13.3683 16.8598C13.419 16.9913 13.4413 17.132 13.4338 17.2727C13.4262 17.4135 13.389 17.551 13.3246 17.6764C13.2602 17.8017 13.17 17.912 13.0599 18.0001L10.9399 20.1201C10.569 20.4932 10.1281 20.7895 9.64248 20.992C9.15686 21.1945 8.63606 21.2992 8.10992 21.3001Z" fill="#FF3838"/>
  <path d="M8.81976 16.1799C8.68816 16.1806 8.55769 16.1554 8.43586 16.1057C8.31402 16.0559 8.2032 15.9826 8.10976 15.8899C8.01603 15.7969 7.94164 15.6863 7.89087 15.5645C7.8401 15.4426 7.81396 15.3119 7.81396 15.1799C7.81396 15.0479 7.8401 14.9172 7.89087 14.7953C7.94164 14.6734 8.01603 14.5628 8.10976 14.4699L14.4798 8.10988C14.6671 7.92363 14.9206 7.81909 15.1848 7.81909C15.4489 7.81909 15.7024 7.92363 15.8898 8.10988C15.9835 8.20285 16.0579 8.31345 16.1087 8.43531C16.1594 8.55717 16.1856 8.68787 16.1856 8.81988C16.1856 8.9519 16.1594 9.0826 16.1087 9.20446C16.0579 9.32632 15.9835 9.43692 15.8898 9.52988L9.51976 15.8899C9.3335 16.0746 9.0821 16.1788 8.81976 16.1799Z" fill="#FF3838"/>
</svg>