<svg width="21" height="21" viewBox="0 0 21 21" fill="none" xmlns="http://www.w3.org/2000/svg">
<path d="M19.93 9.28107L18.57 7.70107C18.31 7.40107 18.1 6.84107 18.1 6.44107V4.74107C18.1 3.68107 17.23 2.81107 16.17 2.81107H14.47C14.08 2.81107 13.51 2.60107 13.21 2.34107L11.63 0.981074C10.94 0.391074 9.81 0.391074 9.11 0.981074L7.54 2.35107C7.24 2.60107 6.67 2.81107 6.28 2.81107H4.55C3.49 2.81107 2.62 3.68107 2.62 4.74107V6.45107C2.62 6.84107 2.41 7.40107 2.16 7.70107L0.81 9.29107C0.23 9.98107 0.23 11.1011 0.81 11.7911L2.16 13.3811C2.41 13.6811 2.62 14.2411 2.62 14.6311V16.3411C2.62 17.4011 3.49 18.2711 4.55 18.2711H6.28C6.67 18.2711 7.24 18.4811 7.54 18.7411L9.12 20.1011C9.81 20.6911 10.94 20.6911 11.64 20.1011L13.22 18.7411C13.52 18.4811 14.08 18.2711 14.48 18.2711H16.18C17.24 18.2711 18.11 17.4011 18.11 16.3411V14.6411C18.11 14.2511 18.32 13.6811 18.58 13.3811L19.94 11.8011C20.52 11.1111 20.52 9.97107 19.93 9.28107ZM14.53 8.65107L9.7 13.4811C9.56 13.6211 9.37 13.7011 9.17 13.7011C8.97 13.7011 8.78 13.6211 8.64 13.4811L6.22 11.0611C5.93 10.7711 5.93 10.2911 6.22 10.0011C6.51 9.71107 6.99 9.71107 7.28 10.0011L9.17 11.8911L13.47 7.59107C13.76 7.30107 14.24 7.30107 14.53 7.59107C14.82 7.88107 14.82 8.36107 14.53 8.65107Z" fill="#FF3838"/>
</svg>
