<svg width="32" height="32" viewBox="0 0 32 32" fill="none" xmlns="http://www.w3.org/2000/svg">
<g clip-path="url(#clip0_349_595)">
<path fill-rule="evenodd" clip-rule="evenodd" d="M31.9501 16C31.9501 7.19723 24.8032 0.050415 16.0004 0.050415H15.9997C7.19686 0.050415 0.0500488 7.19723 0.0500488 16C0.0500488 24.8029 7.19686 31.9497 15.9997 31.9497H16.0004C24.8032 31.9497 31.9501 24.8029 31.9501 16ZM17.6015 16.0002C17.6015 19.9209 14.4448 23.0992 10.5509 23.0992C6.65705 23.0992 3.50005 19.9201 3.50005 16.0002C3.50005 12.0802 6.6568 8.90092 10.5509 8.90092C14.445 8.90092 17.6015 12.0795 17.6015 16.0002ZM25.3364 16.0002C25.3364 19.6907 23.7579 22.6835 21.8109 22.6835C19.8639 22.6835 18.2855 19.6907 18.2855 16.0002C18.2855 12.3097 19.8636 9.31673 21.8107 9.31673C23.7577 9.31673 25.3361 12.3087 25.3361 16.0002H25.3364ZM28.5 16.0002C28.5 19.3059 27.945 21.9874 27.2602 21.9874C26.5753 21.9874 26.0205 19.3067 26.0205 16.0002C26.0205 12.6937 26.5755 10.0129 27.2602 10.0129C27.9448 10.0129 28.5 12.6934 28.5 16.0002Z" fill="#FCFCFD"/>
</g>
<defs>
<clipPath id="clip0_349_595">
<rect width="32" height="32" fill="white"/>
</clipPath>
</defs>
</svg>
