<svg width="32" height="33" viewBox="0 0 32 33" fill="none" xmlns="http://www.w3.org/2000/svg">
<path d="M15.999 32.6401C24.8356 32.6401 31.999 25.4767 31.999 16.6401C31.999 7.80358 24.8356 0.640137 15.999 0.640137C7.16247 0.640137 -0.000976562 7.80358 -0.000976562 16.6401C-0.000976562 25.4767 7.16247 32.6401 15.999 32.6401Z" fill="url(#paint0_linear_2545_4979)"/>
<path d="M23.7863 9.84613L20.93 24.2524C20.93 24.2524 20.53 25.2524 19.43 24.7711L12.8363 19.7149L10.4363 18.5586L6.39876 17.2024C6.39876 17.2024 5.78001 16.9836 5.71751 16.5024C5.65501 16.0211 6.41751 15.7649 6.41751 15.7649L22.4675 9.47113C22.4675 9.46488 23.7863 8.88363 23.7863 9.84613Z" fill="white"/>
<path d="M12.324 24.0899C12.324 24.0899 12.1303 24.0712 11.8928 23.3149C11.6553 22.5587 10.4365 18.5587 10.4365 18.5587L20.1303 12.4024C20.1303 12.4024 20.6928 12.0649 20.6678 12.4024C20.6678 12.4024 20.7678 12.4649 20.4678 12.7399C20.1678 13.0212 12.8553 19.5962 12.8553 19.5962" fill="#D2E4F0"/>
<path d="M15.3613 21.6526L12.7551 24.0339C12.7551 24.0339 12.5488 24.1901 12.3301 24.0901L12.8301 19.6714" fill="#B5CFE4"/>
<defs>
<linearGradient id="paint0_linear_2545_4979" x1="15.999" y1="0.640137" x2="15.999" y2="32.5234" gradientUnits="userSpaceOnUse">
<stop stop-color="#41BCE7"/>
<stop offset="1" stop-color="#22A6DC"/>
</linearGradient>
</defs>
</svg>
