<svg width="33" height="33" viewBox="0 0 33 33" fill="none" xmlns="http://www.w3.org/2000/svg">
<mask id="mask0_2545_4962" style="mask-type:luminance" maskUnits="userSpaceOnUse" x="0" y="0" width="33" height="33">
<path d="M32.8561 0.639945L0.856445 0.783203L0.999704 32.7829L32.9994 32.6396L32.8561 0.639945Z" fill="white"/>
</mask>
<g mask="url(#mask0_2545_4962)">
<path d="M18.6127 15.4117L24.8363 8.2407L23.3539 8.24734L17.9499 14.4738L13.5838 8.29108L8.58008 8.31348L15.1825 17.6628L8.6556 25.1827L10.1381 25.176L15.8448 18.6007L20.4557 25.1298L25.4595 25.1074L18.6123 15.4117L18.6127 15.4117ZM16.5926 17.7391L15.9237 16.8082L10.6016 9.40067L12.8786 9.39048L17.1736 15.3686L17.8425 16.2995L23.4255 24.0701L21.1485 24.0803L16.5926 17.7395L16.5926 17.7391Z" fill="white"/>
</g>
</svg>
